<svg width="14" height="15" viewBox="0 0 14 15" fill="none" xmlns="http://www.w3.org/2000/svg">
<path d="M12 1.5H11.25V0H9.75V1.5H3.75V0H2.25V1.5H1.5C1.3034 1.5001 1.10875 1.53902 0.927225 1.61452C0.745701 1.69003 0.580875 1.80065 0.442205 1.94001C0.303534 2.07938 0.19375 2.24476 0.119152 2.42666C0.0445546 2.60856 0.00661126 2.8034 0.00749999 3L0 13.5C0 13.8978 0.158035 14.2794 0.43934 14.5607C0.720644 14.842 1.10218 15 1.5 15H12C12.3975 14.9988 12.7783 14.8404 13.0594 14.5593C13.3404 14.2783 13.4988 13.8975 13.5 13.5V3C13.4988 2.60254 13.3404 2.2217 13.0594 1.94065C12.7783 1.6596 12.3975 1.50119 12 1.5ZM12 13.5H1.5V5.25H12V13.5Z" fill="#898989"/>
</svg>
