<svg width="17" height="17" viewBox="0 0 17 17" fill="none" xmlns="http://www.w3.org/2000/svg">
<path d="M16.0001 14.45L13.4131 11.863C14.3126 10.5759 14.6973 8.99844 14.4913 7.44168C14.2853 5.88493 13.5036 4.46182 12.3002 3.45297C11.0968 2.44412 9.55911 1.9227 7.9903 1.99155C6.42148 2.06039 4.9354 2.71453 3.82501 3.82492C2.71462 4.93531 2.06048 6.42139 1.99164 7.9902C1.92279 9.55902 2.44421 11.0967 3.45306 12.3001C4.46192 13.5035 5.88502 14.2852 7.44177 14.4912C8.99853 14.6972 10.576 14.3126 11.8631 13.413L14.4501 16L16.0001 14.45ZM8.27313 12.35C7.46619 12.35 6.67736 12.1107 6.00641 11.6624C5.33546 11.2141 4.81247 10.5769 4.50366 9.83139C4.19486 9.08587 4.11406 8.26547 4.27148 7.47403C4.42891 6.68259 4.81752 5.95564 5.38812 5.38504C5.95872 4.81444 6.68567 4.42583 7.47711 4.2684C8.26855 4.11097 9.08895 4.19177 9.83447 4.50058C10.58 4.80939 11.2172 5.33231 11.6655 6.00327C12.1138 6.67422 12.3531 7.46304 12.3531 8.26999C12.3526 9.35219 11.9227 10.39 11.1577 11.1555C10.3928 11.921 9.35533 12.3517 8.27313 12.353V12.35Z" fill="#646464"/>
</svg>
