<svg width="14" height="14" viewBox="0 0 14 14" fill="none" xmlns="http://www.w3.org/2000/svg">
<path d="M6.993 3.50032e-06C5.60883 0.00138767 4.25614 0.413107 3.10592 1.18312C1.9557 1.95313 1.05958 3.04686 0.53084 4.32607C0.00209935 5.60527 -0.135526 7.01252 0.135361 8.36992C0.406247 9.72733 1.07348 10.974 2.05273 11.9522C3.03198 12.9305 4.27927 13.5965 5.63694 13.866C6.99462 14.1355 8.40173 13.9965 9.6804 13.4665C10.9591 12.9365 12.0519 12.0393 12.8208 10.8883C13.5896 9.73728 14 8.38418 14 7C14 6.08016 13.8187 5.16934 13.4665 4.3196C13.1143 3.46987 12.598 2.69788 11.9473 2.04778C11.2965 1.39768 10.524 0.882208 9.67394 0.530836C8.82385 0.179465 7.91285 -0.000916342 6.993 3.50032e-06ZM7 12.6C5.89243 12.6 4.80973 12.2716 3.88881 11.6562C2.96789 11.0409 2.25013 10.1663 1.82628 9.14303C1.40243 8.11976 1.29153 6.99379 1.50761 5.9075C1.72368 4.8212 2.25703 3.82338 3.04021 3.04021C3.82338 2.25703 4.8212 1.72368 5.9075 1.50761C6.99379 1.29153 8.11976 1.40243 9.14303 1.82628C10.1663 2.25013 11.0409 2.96789 11.6562 3.88881C12.2716 4.80973 12.6 5.89243 12.6 7C12.6 8.48522 12.01 9.9096 10.9598 10.9598C9.9096 12.01 8.48522 12.6 7 12.6ZM7.35 3.5H6.3V7.7L9.975 9.905L10.5 9.044L7.35 7.175V3.5Z" fill="#898989"/>
</svg>
