<svg xmlns="http://www.w3.org/2000/svg" width="99.582" height="100" viewBox="0 0 99.582 100"><path d="M259.861,1331.6a2.981,2.981,0,0,1-.453-.3q-1.84-1.8-3.665-3.609a1.821,1.821,0,0,1-.372-2.57,16.791,16.791,0,0,1,4.094-4.958,32.349,32.349,0,0,1,3.066-2.259,1.62,1.62,0,0,1,2.412.287c1.281,1.294,2.541,2.608,3.8,3.919a3.649,3.649,0,0,1,.334.476l.274.068c1.834-1.912,3.632-3.86,5.509-5.73q10.877-10.834,21.795-21.626c.138-.137.277-.273.422-.4a1.733,1.733,0,0,1,2.4-.282,19.86,19.86,0,0,1,6.645,6.277,12.439,12.439,0,0,1,.733,1.226,1.579,1.579,0,0,1-.191,1.834,10.85,10.85,0,0,1-.824.9q-13.2,13.086-26.407,26.163a8.508,8.508,0,0,1-.83.639c.345.375.548.615.77.836q25.4,25.18,50.808,50.357c1.366,1.354,1.421,1.872.373,3.488a21.691,21.691,0,0,1-6.317,6.337c-1.461.966-2.032.914-3.284-.326q-10.246-10.152-20.487-20.308-15.309-15.175-30.621-30.348c-.187-.185-.39-.353-.632-.572l-5.723,5.843,47.661,47.243c-.25.019-.4.041-.544.041q-8.591.005-17.181.013a2.465,2.465,0,0,1-1.846-.763q-18.171-18.054-36.359-36.092a2.386,2.386,0,0,1-.757-1.833q.028-8.723,0-17.446a2.2,2.2,0,0,1,.673-1.656c1.416-1.433,2.813-2.886,4.216-4.332C259.5,1331.99,259.627,1331.847,259.861,1331.6Zm91.231-4.9a38.98,38.98,0,0,0-13.485-14.388,22.026,22.026,0,0,0-21.6-1.876,35.435,35.435,0,0,0-10.742,7.449c-3.347,3.25-6.633,6.563-9.938,9.856-.776.773-1.562,1.541-2.274,2.371a2.93,2.93,0,0,0-.081,4.054,8.885,8.885,0,0,0,.778.866q8.861,8.871,17.729,17.737,8.155,8.153,16.322,16.294c2.05,2.034,3.492,2,5.53-.03q4.619-4.6,9.214-9.231a50.2,50.2,0,0,0,7.9-9.855,25.751,25.751,0,0,0,3.6-13.967C354.061,1333.794,352.961,1330.141,351.092,1326.7Zm-45.539,3.373c2.094-2.018,4.1-4.053,6.227-5.962a19.383,19.383,0,0,1,3.456-2.433,13.885,13.885,0,0,1,14.482.107,28.6,28.6,0,0,1,11.333,11.583c3,5.6,2.411,10.91-1.28,15.955a30.693,30.693,0,0,1-2.6,3.068c-1.5,1.569-3.072,3.072-4.576,4.566Zm-51.082,37.209q0,.282,0,.563,0,8.564,0,17.128a1.737,1.737,0,0,0,.547,1.321q3.66,3.614,7.3,7.247a2.2,2.2,0,0,0,1.655.683q8.405-.008,16.81.01h.876l.04-.133-27.095-26.855Z" transform="translate(-254.471 -1294.251)"/></svg>