<svg width="260" height="171" viewBox="0 0 260 171" fill="none" xmlns="http://www.w3.org/2000/svg">
<g clip-path="url(#clip0)">
<path opacity="0.1" d="M241.106 140.268C240.294 140.981 239.465 141.674 238.617 142.347C238.474 142.463 238.327 142.573 238.183 142.691C235.159 145.036 231.984 147.181 228.68 149.11L228.062 149.47C227.913 149.56 227.766 149.644 227.609 149.728C224.157 151.721 220.575 153.556 216.95 155.294L216.912 155.314L216.638 155.443C213.715 156.844 210.748 158.185 207.737 159.466L207.665 159.493C206.307 160.065 204.95 160.621 203.592 161.163C203.038 161.389 202.481 161.6 201.924 161.815C200.877 162.215 199.827 162.609 198.768 162.987L198.637 163.036L198.411 163.116L198.128 163.22C195.366 164.206 192.567 165.117 189.731 165.953L189.681 165.966C187.704 166.543 185.714 167.076 183.71 167.566L183.437 167.634C180.495 168.344 177.506 168.955 174.499 169.444L173.807 169.555C171.608 169.9 169.393 170.182 167.164 170.401C154.632 171.612 141.95 170.627 129.494 168.94C104.343 165.528 79.5245 159.131 56.8894 149.106C52.5452 147.182 48.2855 145.123 44.1103 142.929C44.0763 142.911 44.0469 142.892 44.013 142.877C41.5135 141.563 39.0481 140.194 36.6165 138.77C35.9038 138.358 35.1956 137.937 34.4919 137.514C33.6261 136.992 32.7641 136.464 31.9058 135.93C30.7745 135.225 29.6432 134.5 28.5119 133.761L27.9824 133.408L27.7788 133.27C27.4915 133.077 27.2086 132.885 26.9235 132.69C16.2893 125.45 6.80675 116.676 2.3268 105.695C-2.85003 93.0247 0.46242 76.9603 13.2846 69.471C17.6921 66.8917 22.8147 65.4911 27.9915 64.3349L28.5209 64.2173C29.3966 64.025 30.2722 63.8394 31.1433 63.6539C34.1955 63.0068 37.2636 62.3642 40.3023 61.647C41.8861 61.2736 43.4541 60.8822 45.013 60.4591L45.6511 60.2826C49.4107 59.274 53.0876 57.979 56.6496 56.409H56.6722C57.0546 56.2394 57.4325 56.0629 57.8035 55.8819C58.0434 55.7687 58.2832 55.6556 58.523 55.5312C62.3694 53.617 66.4421 50.963 69.5758 47.7999C69.827 47.5464 70.0713 47.2885 70.3089 47.0306C70.4922 46.8292 70.6732 46.6256 70.8474 46.4219C73.0444 43.8607 74.5649 41.0166 74.8545 37.9983C74.952 36.984 74.9063 35.9611 74.7187 34.9596C74.3635 33.0613 74.0196 31.2037 73.7662 29.3913C73.2933 25.9861 73.1326 22.7302 73.7888 19.592C74.4563 16.3927 75.9699 13.3133 78.8593 10.3266C79.2952 9.87413 79.7651 9.42161 80.2689 8.96909C82.6056 6.91908 85.2495 5.24856 88.1043 4.01852C88.4572 3.86768 88.8125 3.71684 89.17 3.566C97.1072 0.353104 106.644 -0.316625 115.554 0.126845C123.879 0.555241 132.15 1.70595 140.275 3.566C140.92 3.7108 141.565 3.8624 142.205 4.01852C149.117 5.69286 155.918 7.79587 162.569 10.3153C179.85 16.8158 196.162 25.8413 211.4 35.8013C211.55 35.8986 211.699 35.9959 211.853 36.0954C212.489 36.5102 213.122 36.9265 213.751 37.3444C214.968 38.1514 216.175 38.9636 217.371 39.7812L218.179 40.331C218.577 40.6025 218.973 40.8748 219.367 41.1478L220.58 41.9872C220.637 42.0216 220.691 42.0601 220.742 42.1026L221.774 42.8176C222.372 43.2339 222.964 43.6525 223.559 44.0733L224.836 44.9784C225.1 45.1684 225.367 45.3562 225.632 45.5486L226.99 46.5396L227.293 46.7658C227.356 46.8111 227.419 46.8563 227.48 46.9061L227.519 46.931C231.198 49.6303 234.789 52.4291 238.153 55.3954L238.588 55.78L238.633 55.8208C238.999 56.1466 239.366 56.4769 239.726 56.8095C244.12 60.8098 248.057 65.1087 251.274 69.8602C266.053 91.8074 261.666 122.196 241.106 140.268Z" fill="#EF6913"/>
<path d="M183.624 80.0416C183.624 80.0416 184.94 73.1407 189.171 73.1045L192.267 79.4715L190.185 80.8856C190.185 80.8856 185.714 81.0281 183.624 80.0416Z" fill="#65617D"/>
<path opacity="0.1" d="M192.258 79.462L190.185 80.8851C190.185 80.8851 187.031 80.9847 184.777 80.4326C184.381 80.3405 183.994 80.2094 183.624 80.0412C183.624 80.0412 183.624 80.0027 183.646 79.9303C183.645 79.9213 183.645 79.9122 183.646 79.9032C183.841 79.0374 184.109 78.1896 184.447 77.3691C184.576 77.0591 184.725 76.7401 184.884 76.421C185.504 75.2286 186.375 74.0589 187.567 73.4796C188.008 73.2637 188.487 73.1383 188.977 73.1108H189.104H189.165L189.235 73.2511L190.28 75.4029L192.258 79.462Z" fill="black"/>
<path d="M227.401 108.132C227.401 108.132 231.847 107.706 232.238 108.025C232.629 108.344 235.154 109.982 236.65 108.951C238.146 107.919 237.148 104.326 237.148 104.183C237.148 104.041 237.005 98.9545 237.005 98.9545L234.338 95.3615L230.994 89.067L224.165 88.3882L224.342 98.3844L224.308 103.507L227.401 108.132Z" fill="#65617D"/>
<path opacity="0.1" d="M227.401 108.132C227.401 108.132 231.847 107.706 232.238 108.025C232.629 108.344 235.154 109.982 236.65 108.951C238.146 107.919 237.148 104.326 237.148 104.183C237.148 104.041 237.005 98.9545 237.005 98.9545L234.338 95.3615L230.994 89.067L224.165 88.3882L224.342 98.3844L224.308 103.507L227.401 108.132Z" fill="black"/>
<path d="M188.273 72.9189C188.273 72.9189 187.922 77.2585 185.207 77.3264C185.207 77.3264 184.443 76.8739 183.411 76.0933C181.035 74.3172 177.268 70.9006 178.309 67.7217C179.802 63.1693 187.058 71.5681 187.058 71.5681L187.617 72.1926L188.273 72.9189Z" fill="#A5636D"/>
<path opacity="0.1" d="M188.273 72.9188C188.273 72.9188 187.922 77.2585 185.207 77.3264C185.207 77.3264 184.443 76.8738 183.411 76.0932L183.185 75.7968C183.643 76.0373 184.149 76.174 184.667 76.1973C185.345 76.2109 186.11 75.9711 186.601 74.9778C186.885 74.4193 187.135 73.8443 187.35 73.2559C187.478 72.9106 187.569 72.5526 187.622 72.188L188.273 72.9188Z" fill="black"/>
<path d="M187.099 80.7793L186.49 79.9964L184.454 77.3605L183.397 76.0142C183.856 76.2537 184.361 76.3896 184.877 76.4124C185.556 76.4283 186.321 76.1862 186.812 75.1929C187.096 74.6349 187.347 74.0598 187.561 73.4711C187.898 72.5117 187.891 72.0185 187.771 71.851C187.651 71.6836 188.527 72.4959 188.948 72.8964L188.963 72.9099L189.158 73.0955L189.233 73.2403L190.262 75.3015C190.262 75.3015 190.262 75.3309 190.262 75.3875C190.357 76.0414 190.703 80.191 187.099 80.7793Z" fill="#E7EFFD"/>
<path d="M226.404 52.5712L221.139 58.1938C221.139 58.1938 214.383 55.4787 215.094 54.5736C215.37 54.2161 215.32 53.0871 215.166 51.8404C214.917 49.8697 214.383 47.6003 214.383 47.6003C214.383 47.6003 226.192 45.6793 225.194 47.6727C224.832 48.399 224.893 49.2565 225.119 50.0348C225.41 50.9433 225.844 51.7996 226.404 52.5712Z" fill="#A5636D"/>
<path opacity="0.1" d="M225.194 47.6638C224.832 48.3901 224.658 48.4602 224.884 49.2476C223.341 50.9038 221.377 52.7162 218.936 52.7162C217.628 52.7186 216.337 52.4165 215.166 51.8337C214.917 49.863 214.383 47.5936 214.383 47.5936C214.383 47.5936 226.192 45.6704 225.194 47.6638Z" fill="black"/>
<path d="M227.403 44.0344C227.403 46.2799 226.511 48.4334 224.923 50.0212C223.335 51.6091 221.182 52.5011 218.936 52.5011C216.691 52.5011 214.537 51.6091 212.95 50.0212C211.362 48.4334 210.47 46.2799 210.47 44.0344C210.47 43.9937 210.47 43.953 210.47 43.9122C210.518 41.6888 211.44 39.5738 213.035 38.0242C214.631 36.4747 216.772 35.615 218.995 35.6311C221.219 35.6471 223.348 36.5376 224.92 38.11C226.493 39.6824 227.384 41.8105 227.401 44.0344H227.403Z" fill="#A5636D"/>
<path opacity="0.1" d="M228.627 99.8847C227.495 99.8847 223.771 99.9254 219.599 99.991H219.547L218.169 100.014H218.126C213.178 100.093 208.302 99.1267 206.345 99.31C202.181 99.7014 207.838 95.4636 207.838 95.4636C210.939 96.216 214.129 96.5388 217.318 96.4229L218.515 96.3596C222.296 96.1469 226.097 95.7917 228.084 95.1943C228.222 96.2985 228.423 97.8981 228.627 99.8847Z" fill="black"/>
<path d="M228.627 99.6718C227.495 99.6718 223.771 99.7103 219.599 99.7782H219.547L218.169 99.8008H218.126C213.178 99.88 208.302 98.9138 206.345 99.0971C202.181 99.4863 207.838 95.2507 207.838 95.2507C210.939 96.003 214.129 96.3251 217.318 96.2078L218.515 96.1467C222.296 95.934 226.097 95.5765 228.084 94.9814C228.222 96.0856 228.423 97.6898 228.627 99.6718Z" fill="#5F5D7E"/>
<path opacity="0.1" d="M216.658 54.9268L210.112 57.9858L205.064 97.0338C205.064 97.0338 208.051 95.6762 209.759 96.536C211.467 97.3958 216.73 96.6084 216.73 96.6084C216.73 96.6084 220.576 96.3821 221.14 96.8211C221.703 97.26 228.398 95.0427 228.398 95.0427C228.398 95.0427 229.606 92.3389 228.681 91.9135C227.756 91.4881 228.966 87.2819 228.966 87.2819L228.398 59.1103L227.267 55.4901L224.208 53.6416L221.079 56.1305L219.585 56.3454L216.658 54.9268Z" fill="black"/>
<path d="M216.658 54.4921L210.114 57.5511L205.064 96.6082C205.064 96.6082 208.051 95.2506 209.759 96.1104C211.467 96.9702 216.73 96.1805 216.73 96.1805C216.73 96.1805 220.576 95.9678 221.14 96.3932C221.703 96.8186 228.398 94.6148 228.398 94.6148C228.398 94.6148 229.606 91.9133 228.681 91.4856C227.756 91.058 228.966 86.8609 228.966 86.8609L228.398 58.6892L227.267 55.0691L224.208 53.2183L221.079 55.7071L219.585 55.9198L216.658 54.4921Z" fill="#E7EFFD"/>
<path opacity="0.1" d="M216.551 56.307C216.551 56.307 218.438 58.547 218.402 59.0108C218.366 59.4746 218.296 60.5743 218.296 60.5743L216.884 63.4568C216.884 63.4568 216.101 67.0498 216.101 67.7965C216.101 68.5431 214.856 75.0164 214.856 75.0164L213.363 84.9719L211.476 98.0271L213.397 101.335L215.673 99.4141L218.694 76.1545L219.334 71.566C219.334 71.566 220.013 63.3143 220.013 62.4613C220.013 61.6083 219.621 59.366 219.621 59.366C219.621 59.366 220.085 57.2324 222.006 56.7346C223.927 56.2369 221.864 56.626 221.864 56.626L220.762 55.7368L219.8 56.1282C219.8 56.1282 217.121 55.3115 216.551 56.307Z" fill="black"/>
<path d="M216.339 56.0941C216.339 56.0941 218.223 58.3341 218.189 58.7956C218.155 59.2572 218.081 60.3614 218.081 60.3614L216.658 63.2439C216.658 63.2439 215.875 66.8347 215.875 67.5813C215.875 68.328 214.63 74.8035 214.63 74.8035L213.135 84.759L211.25 97.8119L213.171 101.12L215.447 99.1989L218.468 75.9416L219.108 71.3531C219.108 71.3531 219.787 63.1014 219.787 62.2461C219.787 61.3908 219.395 59.1531 219.395 59.1531C219.395 59.1531 219.848 57.0172 221.778 56.5195C223.708 56.0217 221.638 56.4131 221.638 56.4131L220.533 55.5239L219.574 55.9154C219.574 55.9154 216.909 55.0963 216.339 56.0941Z" fill="#EF6913"/>
<path opacity="0.1" d="M215.094 52.3589C215.094 52.3589 214.809 52.5716 214.739 53.9947C214.669 55.4179 213.671 58.6195 213.671 58.6195C213.671 58.6195 217.37 56.0582 219.221 56.3433L215.094 52.3589Z" fill="black"/>
<path d="M215.094 51.9312C215.094 51.9312 214.809 52.1461 214.739 53.567C214.669 54.9879 213.671 58.1918 213.671 58.1918C213.671 58.1918 217.37 55.6305 219.221 55.9156L215.094 51.9312Z" fill="#E7EFFD"/>
<path opacity="0.1" d="M225.196 51.2202L219.373 56.3427C219.373 56.3427 224.282 59.2592 224.923 59.9629C225.563 60.6666 226.203 52.9918 226.203 52.9918L225.196 51.2202Z" fill="black"/>
<path d="M225.409 50.793L219.576 55.9155C219.576 55.9155 224.484 58.832 225.124 59.5357C225.764 60.2393 226.405 52.5623 226.405 52.5623L225.409 50.793Z" fill="#E7EFFD"/>
<path opacity="0.1" d="M215.3 52.3586C215.3 52.3586 214.66 52.0374 214.056 52.9628C213.452 53.8882 212.313 54.3203 212.313 54.3203C212.313 54.3203 205.838 55.3521 205.589 56.2051L202.566 56.3816C202.566 56.3816 201.498 56.5105 201.399 58.7731C201.299 61.0357 200.72 61.2258 200.72 61.2258C200.72 61.2258 199.473 63.4318 199.589 64.5699C199.704 65.708 198.627 66.2782 198.627 66.2782L203.082 77.8265C203.082 77.8265 203.225 82.5938 202.403 84.336C201.582 86.0782 200.055 93.7982 200.055 93.7982C200.055 93.7982 200.695 93.6556 200.659 94.0833C200.623 94.5109 199.876 99.1696 199.876 99.1696C199.876 99.1696 199.663 101.018 199.308 101.658C198.953 102.299 198.917 105.643 198.917 105.643L198.331 108.062C198.331 108.062 199.688 111.084 201.747 110.657C203.806 110.229 207.544 102.156 207.544 102.156L209.926 93.443L211.777 84.8338L212.311 79.0008L213.164 66.0881L214.409 57.5513C214.409 57.5513 215.805 52.9628 215.3 52.3586Z" fill="black"/>
<path d="M215.094 51.9311C215.094 51.9311 214.454 51.612 213.85 52.5374C213.246 53.4628 212.105 53.895 212.105 53.895C212.105 53.895 205.632 54.9267 205.383 55.7797L202.36 55.9585C202.36 55.9585 201.292 56.101 201.186 58.341C201.08 60.581 200.507 60.7959 200.507 60.7959C200.507 60.7959 199.263 63.002 199.376 64.1401C199.489 65.2781 198.417 65.8461 198.417 65.8461L202.856 77.3989C202.856 77.3989 202.998 82.1662 202.177 83.9084C201.356 85.6506 199.831 93.3706 199.831 93.3706C199.831 93.3706 200.471 93.2281 200.435 93.6557C200.399 94.0833 199.652 98.742 199.652 98.742C199.652 98.742 199.439 100.591 199.084 101.231C198.729 101.871 198.693 105.215 198.693 105.215L198.127 107.645C198.127 107.645 199.485 110.668 201.541 110.243C203.598 109.817 207.34 101.74 207.34 101.74L209.723 93.0267L211.574 84.4288L212.105 78.5958L212.961 65.6854L214.205 57.1486C214.205 57.1486 215.592 52.5374 215.094 51.9311Z" fill="#65617D"/>
<path opacity="0.1" d="M192.258 79.4622L190.186 80.8853C190.186 80.8853 187.032 80.9849 184.778 80.4328L183.629 79.9237L183.402 79.8219L183.64 79.8966C184.83 80.2495 185.76 80.2427 186.486 79.9984C189.407 79.0164 189.084 74.1948 188.975 73.1042C188.975 72.9956 188.957 72.9255 188.952 72.8983C188.952 72.8938 188.952 72.8893 188.952 72.8848L188.971 72.9119C189.009 72.9784 189.054 73.0412 189.104 73.0997C189.145 73.1484 189.189 73.1945 189.235 73.2377L190.265 75.299C190.265 75.299 190.265 75.3284 190.265 75.3849L192.258 79.4622Z" fill="black"/>
<path d="M199.407 65.561L198.412 65.8461L198.269 67.8825C198.269 67.8825 197.095 67.706 196.776 69.093C196.457 70.4799 195.887 71.1293 195.887 71.1293C195.887 71.1293 193.929 72.7652 193.823 74.1521L192.613 74.8988C192.613 74.8988 189.802 74.2585 189.162 73.1204C189.162 73.1204 190.443 82.2975 183.614 80.0575C183.614 80.0575 191.262 83.4017 191.617 83.8632C191.972 84.3248 194.321 85.6733 196.455 84.542C198.588 83.4107 199.052 81.6255 199.052 81.6255C199.052 81.6255 201.115 78.7452 201.186 78.3176C201.256 77.89 202.858 77.3922 202.858 77.3922L205.917 69.9957L199.407 65.561Z" fill="#65617D"/>
<path opacity="0.1" d="M224.378 55.4879L225.41 50.793C225.41 50.793 225.862 52.3225 226.335 52.6777C226.808 53.0329 227.864 53.852 227.864 53.852C227.864 53.852 229.394 54.5647 229.926 54.5647C230.457 54.5647 233.342 55.3114 233.697 55.696C234.053 56.0807 235.476 55.8024 235.476 55.8024C235.476 55.8024 236.65 56.1938 237.682 56.4427C238.714 56.6916 239.211 58.3998 238.996 59.0741C238.911 59.4103 238.911 59.7627 238.998 60.0986C239.085 60.4344 239.256 60.7428 239.494 60.995C239.922 61.4227 240.135 62.8051 240.135 62.8051C240.658 62.9757 241.094 63.3466 241.345 63.8369C241.7 64.6197 241.594 66.3257 241.594 66.3257L236.295 73.7923C236.295 73.7923 236.365 76.6726 236.152 77.3129C235.94 77.9532 236.899 88.8386 236.899 88.8386L238.001 107.548C238.001 107.548 236.544 108.792 236.223 108.935C235.901 109.078 235.582 102.319 235.582 102.07C235.582 101.821 227.367 89.7617 227.367 89.7617C227.367 89.7617 226.263 87.9833 226.263 87.5919C226.263 87.2005 225.231 83.6097 225.231 83.6097L223.672 76.6884L224.378 55.4879Z" fill="black"/>
<path d="M242.035 65.93C242.035 66.1744 242.021 66.3373 242.021 66.3373L236.725 73.8039C236.725 73.8039 236.797 76.6864 236.584 77.3268C236.46 77.6978 236.731 81.5261 236.982 84.6689C237.161 86.9315 237.331 88.8502 237.331 88.8502L237.797 96.7874L238.431 107.562C238.431 107.562 236.973 108.806 236.654 108.949C236.335 109.091 236.014 102.333 236.014 102.082C236.014 101.831 227.792 89.7711 227.792 89.7711C227.792 89.7711 226.69 87.9904 226.69 87.599C226.69 87.2075 225.658 83.6145 225.658 83.6145L224.095 76.6797L224.805 55.4791L225.409 50.7842C225.409 50.7842 226.299 52.316 226.767 52.6689C227.235 53.0219 228.294 53.8432 228.294 53.8432C228.294 53.8432 229.824 54.5559 230.358 54.5559C230.892 54.5559 233.772 55.3026 234.129 55.6872C234.487 56.0719 235.908 55.7936 235.908 55.7936C235.908 55.7936 237.08 56.185 238.112 56.4339C239.143 56.6828 239.641 58.391 239.428 59.0653C239.342 59.4014 239.342 59.754 239.429 60.09C239.516 60.426 239.687 60.7344 239.926 60.9862C240.351 61.4116 240.566 62.7963 240.566 62.7963C241.09 62.9675 241.525 63.3383 241.777 63.8281C242.019 64.3892 242.042 65.3757 242.035 65.93Z" fill="#65617D"/>
<path opacity="0.1" d="M203.596 161.163C203.041 161.389 202.485 161.599 201.928 161.814C200.184 161.305 198.555 160.706 198.555 160.706C200.242 160.766 201.925 160.919 203.596 161.163Z" fill="black"/>
<path opacity="0.1" d="M220.43 142.172C220.43 142.172 224.663 143.168 224.912 143.844L220.43 142.172Z" fill="black"/>
<path opacity="0.1" d="M204.103 145.231C204.103 145.231 201.897 145.872 204.033 147.152C206.168 148.433 204.103 145.231 204.103 145.231Z" fill="black"/>
<path opacity="0.1" d="M213.884 111.039C214.133 111.039 218.011 109.758 219.362 110.328C220.712 110.899 222.387 110.896 222.387 110.896L213.884 111.039Z" fill="black"/>
<path opacity="0.1" d="M214.395 115.112L214.356 115.465L211.039 124.14C211.039 124.14 210.505 126.771 210.041 128.264C209.751 129.279 209.519 130.311 209.349 131.353L212.29 113.148L214.395 115.112Z" fill="black"/>
<path d="M219.547 99.7783L218.169 99.8009H218.126L217.318 96.2147C217.714 96.1966 218.115 96.1763 218.515 96.1514L219.547 99.7783Z" fill="#3F3D56"/>
<path d="M236.328 95.4271L235.444 96.158L232.496 98.5948C232.496 98.5948 224.493 102.864 222.289 98.8075C220.346 95.2348 229.419 92.6849 231.604 92.1283C231.901 92.0536 232.07 92.0151 232.07 92.0151L236.328 95.4271Z" fill="#A5636D"/>
<path opacity="0.1" d="M202.147 60.4678C202.147 60.4678 203.711 61.1805 204.066 62.176C204.421 63.1716 202.147 60.4678 202.147 60.4678Z" fill="black"/>
<path opacity="0.1" d="M197.308 71.1401C197.308 71.1401 195.032 73.9141 195.95 74.9866C196.869 76.059 197.308 71.1401 197.308 71.1401Z" fill="black"/>
<path opacity="0.1" d="M238 62.0337C238 62.0337 235.867 62.2464 235.794 64.0972L238 62.0337Z" fill="black"/>
<path opacity="0.1" d="M218.224 91.2008C218.45 90.9881 223.346 83.7342 224.484 84.3723L218.224 91.2008Z" fill="black"/>
<path opacity="0.1" d="M227.403 44.0346C227.404 45.4289 227.06 46.8018 226.401 48.0304H226.337C225.801 47.9173 225.523 47.2928 225.113 46.8991C224.861 46.6595 224.54 46.5047 224.196 46.4564C223.852 46.4081 223.501 46.4688 223.192 46.6298C222.88 46.816 222.627 47.0856 222.46 47.4083C222.293 47.7309 222.22 48.0937 222.249 48.4558C221.977 47.3245 222.063 46.1049 221.796 44.9646C221.529 43.8242 220.735 42.668 219.645 42.6477C219.174 42.6477 218.626 42.8219 218.287 42.4689C218.081 42.2562 218.04 41.9214 217.887 41.6634C217.106 40.4032 214.735 41.0412 213.766 41.6883C212.798 42.3354 211.673 43.3672 210.47 43.9215C210.518 41.6981 211.44 39.583 213.035 38.0335C214.631 36.4839 216.772 35.6243 218.995 35.6404C221.219 35.6564 223.348 36.5468 224.92 38.1193C226.493 39.6917 227.384 41.8198 227.401 44.0437L227.403 44.0346Z" fill="black"/>
<path d="M217.888 41.4419C218.042 41.6998 218.083 42.0347 218.289 42.2474C218.628 42.5981 219.176 42.4171 219.646 42.4261C220.737 42.4442 221.533 43.6004 221.798 44.7408C222.063 45.8811 221.977 47.0939 222.25 48.232C222.222 47.8703 222.296 47.5079 222.462 47.1857C222.629 46.8635 222.882 46.5943 223.194 46.4083C223.502 46.2471 223.852 46.1864 224.196 46.2347C224.541 46.2829 224.861 46.4378 225.113 46.6776C225.522 47.0667 225.791 47.6912 226.339 47.8089C226.886 47.9265 227.393 47.4061 227.588 46.8405C227.782 46.2748 227.767 45.6549 227.893 45.0688C228.135 43.9579 228.859 43.0483 229.251 41.994C229.728 40.7102 229.715 39.2957 229.215 38.0208C228.948 37.3421 228.552 36.7515 228.28 36.0841C227.873 35.0704 227.764 33.9278 227.267 32.9617C226.429 31.3439 224.456 30.5362 222.836 31.1516C222.063 31.4435 221.391 32.0068 220.605 32.258C219.556 32.5951 218.431 32.3417 217.343 32.1901C216.254 32.0385 215.051 32.025 214.175 32.7399C213.168 33.5635 212.892 35.1111 211.946 36.0162C211.548 36.3963 211.055 36.6384 210.636 36.9891C210.218 37.3398 209.856 37.8625 209.903 38.4326C209.967 39.1702 210.688 39.84 210.422 40.521C210.326 40.7192 210.191 40.8961 210.026 41.0414C209.234 41.8728 208.645 42.8754 208.304 43.9715C210.209 44.5665 212.268 42.4669 213.759 41.4826C214.739 40.8197 217.11 40.1794 217.888 41.4419Z" fill="#4C3E42"/>
<path opacity="0.1" d="M236.328 95.427L235.444 96.1578C234.663 94.8568 231.457 92.2593 231.457 92.2593L231.595 92.1258C231.891 92.0512 232.061 92.0127 232.061 92.0127L236.328 95.427Z" fill="black"/>
<path d="M237.184 94.1172C237.184 94.1172 236.865 94.9091 236.537 95.5947C236.209 96.2802 235.858 96.9002 235.831 96.3956C235.795 95.3978 231.67 92.0537 231.67 92.0537L232.229 91.5107L232.878 90.8794L237.184 94.1172Z" fill="#E7EFFD"/>
<path opacity="0.1" d="M237.327 88.8521L237.793 96.7893C236.689 95.072 233.654 90.6667 231.704 90.8093L236.435 85.379C236.633 85.1602 236.814 84.9273 236.978 84.6821C237.157 86.9402 237.327 88.8521 237.327 88.8521Z" fill="black"/>
<path opacity="0.1" d="M237.184 94.1172C237.184 94.1172 236.865 94.9091 236.537 95.5947C235.297 93.8932 233.595 91.8863 232.238 91.5107L232.887 90.8794L237.184 94.1172Z" fill="black"/>
<path d="M240.741 65.3345L242.021 66.33C242.021 66.33 244.155 66.3662 244.368 68.1401C244.58 69.914 246.538 70.7376 246.538 70.7376C246.538 70.7376 247.997 72.1947 247.997 72.8712C247.997 73.5477 249.099 74.7559 249.099 74.8623C249.099 74.9686 250.167 77.1385 250.024 77.5299C249.882 77.9213 251.156 79.6296 250.771 80.2699C250.45 80.8442 250.165 81.4382 249.918 82.0483C249.918 82.0483 248.246 85.2499 247.391 85.854C246.535 86.4581 242.626 91.5444 242.626 91.5444C242.626 91.5444 238.428 96.3819 238.428 97.8797C238.428 97.8797 234.338 91.0489 231.919 91.2277L236.65 85.7861C236.65 85.7861 237.467 84.8969 237.503 84.3629C237.539 83.829 239.779 81.3741 240.847 81.2677C240.847 81.2677 241.024 79.8083 240.562 79.7744C240.101 79.7405 239.709 78.6001 239.709 78.6001C239.709 78.6001 236.578 74.9007 236.541 72.5522C236.505 70.2036 240.741 65.3345 240.741 65.3345Z" fill="#65617D"/>
<path opacity="0.1" d="M242.626 68.7285C242.626 68.7285 239.637 70.9323 240.277 71.645C240.917 72.3577 242.626 68.7285 242.626 68.7285Z" fill="black"/>
<path opacity="0.1" d="M242.768 77.8265C242.768 77.8265 248.316 76.0481 248.877 77.8265H242.768Z" fill="black"/>
<path opacity="0.1" d="M203.622 68.2939C203.622 68.2939 203.622 76.4031 202.928 77.2041C202.233 78.005 203.622 68.2939 203.622 68.2939Z" fill="black"/>
<path opacity="0.1" d="M235.688 70.9072L236.72 73.8056C236.72 73.8056 237.129 70.9615 235.688 70.9072Z" fill="black"/>
<g opacity="0.1">
<path opacity="0.1" d="M210.549 39.8171C210.809 39.1496 210.128 38.4957 210.038 37.7808C209.948 37.9826 209.909 38.2031 209.925 38.4233C209.97 38.9641 210.377 39.4664 210.474 39.9664C210.504 39.9191 210.529 39.8691 210.549 39.8171Z" fill="black"/>
<path opacity="0.1" d="M222.344 47.4785C222.088 46.3472 222.163 45.1684 221.905 44.0484C221.647 42.9284 220.844 41.7496 219.753 41.7315C219.283 41.7315 218.735 41.9034 218.396 41.5527C218.19 41.34 218.149 41.0052 217.995 40.7472C217.217 39.487 214.846 40.125 213.875 40.7721C212.42 41.7383 210.422 43.761 208.556 43.304C208.467 43.5189 208.384 43.7361 208.313 43.9601C210.219 44.5552 212.278 42.4555 213.769 41.4713C214.739 40.8264 217.108 40.1861 217.889 41.4486C218.043 41.7066 218.083 42.0415 218.289 42.2541C218.629 42.6048 219.176 42.4238 219.647 42.4329C220.737 42.451 221.534 43.6072 221.799 44.7475C222.063 45.8879 221.977 47.1006 222.251 48.2387C222.231 47.9817 222.263 47.7232 222.344 47.4785Z" fill="black"/>
<path opacity="0.1" d="M227.692 46.1432C227.498 46.7089 226.991 47.227 226.443 47.1116C225.896 46.9962 225.629 46.374 225.219 45.9803C224.967 45.7414 224.646 45.5872 224.302 45.5393C223.957 45.4915 223.607 45.5523 223.298 45.7133C223.002 45.89 222.758 46.1429 222.592 46.4456C222.426 46.7484 222.344 47.0901 222.355 47.4352C222.498 47.0006 222.796 46.6341 223.192 46.4057C223.5 46.2445 223.851 46.1837 224.195 46.232C224.539 46.2803 224.859 46.4352 225.111 46.6749C225.52 47.0641 225.79 47.6886 226.337 47.8062C226.885 47.9239 227.391 47.4035 227.586 46.8378C227.687 46.5047 227.752 46.1619 227.781 45.8151C227.757 45.926 227.728 46.0355 227.692 46.1432Z" fill="black"/>
<path opacity="0.1" d="M229.365 41.2991C228.964 42.3535 228.234 43.263 228.007 44.3717C227.958 44.598 227.93 44.8242 227.903 45.0505C228.145 43.9463 228.867 43.039 229.261 41.9869C229.439 41.5131 229.55 41.0165 229.589 40.5117C229.535 40.7797 229.46 41.043 229.365 41.2991Z" fill="black"/>
</g>
<path d="M177.96 67.0544C178.009 67.0544 178.049 67.0149 178.049 66.9662C178.049 66.9174 178.009 66.8779 177.96 66.8779C177.912 66.8779 177.872 66.9174 177.872 66.9662C177.872 67.0149 177.912 67.0544 177.96 67.0544Z" fill="#E6E8EC"/>
<path d="M106.854 116.612C106.854 116.612 109.342 114.827 111.929 115.933C111.929 115.933 111.204 117.467 107.992 117.447L106.854 116.612Z" fill="#EF6913"/>
<path d="M106.544 116.716C106.544 116.716 105.878 119.71 107.901 121.651C107.901 121.651 109.033 120.384 107.75 117.436L106.544 116.716Z" fill="#EF6913"/>
<path d="M103.245 113.992C103.245 113.992 103.337 111.464 109.06 112.082C109.06 112.082 109.15 113.709 107.182 114.555C105.213 115.401 104.274 114.788 103.245 113.992Z" fill="#EF6913"/>
<path d="M102.894 113.98C102.894 113.98 100.518 114.845 102.867 120.101C102.867 120.101 104.451 119.684 104.641 117.551C104.831 115.417 103.967 114.723 102.894 113.98Z" fill="#EF6913"/>
<path d="M99.5362 110.537C99.5362 110.537 99.052 106.403 104.885 106.604C104.885 106.604 105.442 110.342 100.602 111.494L99.5362 110.537Z" fill="#EF6913"/>
<path d="M95.5132 106.003C95.5132 106.003 96.1309 101.272 101.998 102.45C101.998 102.45 102.174 106.523 96.5042 107.086L95.5132 106.003Z" fill="#EF6913"/>
<path d="M92.52 101.269C92.52 101.269 93.6785 96.6307 99.4911 97.7914C99.4911 97.7914 98.2783 101.959 92.9295 102.09L92.52 101.269Z" fill="#EF6913"/>
<path d="M89.6714 96.6446C89.6714 96.6446 90.8027 91.8434 96.4071 93.0584C96.4071 93.0584 94.7238 97.6424 90.0719 97.441L89.6714 96.6446Z" fill="#EF6913"/>
<path d="M87.7778 92.221C87.7778 92.221 88.5584 86.3767 93.7986 87.4582C93.7986 87.4582 92.4953 92.8025 88.1964 93.0514L87.7778 92.221Z" fill="#EF6913"/>
<path d="M85.9585 86.8565C85.9585 86.8565 86.9382 80.9534 92.244 82.4558C92.244 82.4558 90.4 88.0693 86.3612 87.6597L85.9585 86.8565Z" fill="#EF6913"/>
<path d="M84.7661 81.8518C84.7661 81.8518 86.454 75.9216 90.5176 75.9238C90.5176 75.9238 88.7981 82.1844 85.1508 83.0126L84.7661 81.8518Z" fill="#EF6913"/>
<path d="M83.9448 76.9441C83.9448 76.9441 85.7549 69.8146 89.0764 70.2309C89.0764 70.2309 87.8433 75.6747 84.0987 78.0369L83.9448 76.9441Z" fill="#EF6913"/>
<path d="M83.3584 71.0723C83.3584 71.0723 85.0825 65.1217 88.3361 64.7642C88.3361 64.7642 87.2297 70.5949 83.4919 72.595L83.3584 71.0723Z" fill="#EF6913"/>
<path d="M82.7544 65.6086C82.7544 65.6086 84.9604 59.6354 87.1099 59.4204C87.1099 59.4204 86.275 65.2511 83.0055 66.5657L82.7544 65.6086Z" fill="#EF6913"/>
<path d="M82.2886 60.5175C82.2886 60.5175 83.5398 54.0714 85.6689 53.4604C85.6689 53.4604 85.5761 58.6961 82.5239 60.9859L82.2886 60.5175Z" fill="#EF6913"/>
<path d="M81.2227 53.872C81.2227 53.872 82.6006 48.7201 84.3134 47.8784C84.3134 47.8784 84.198 53.8924 81.6752 55.1006L81.2227 53.872Z" fill="#EF6913"/>
<path d="M80.3833 49.5126L79.7227 40.5459C79.7227 40.5459 83.2319 47.1979 80.6752 51.0806L80.3833 49.5126Z" fill="#EF6913"/>
<path d="M77.526 40.6856C77.526 40.6856 74.9331 34.2214 74.3584 33.8774C74.3584 33.8774 79.1099 37.9501 78.8836 43.4415L77.526 40.6856Z" fill="#EF6913"/>
<path d="M99.3756 110.512C99.3756 110.512 95.2305 110.132 95.5767 115.956C95.5767 115.956 99.3281 116.409 100.36 111.553L99.3756 110.512Z" fill="#EF6913"/>
<path d="M95.3123 105.853C95.3123 105.853 90.545 106.02 91.1627 111.962C91.1627 111.962 95.1901 112.523 96.2965 106.935L95.3123 105.853Z" fill="#EF6913"/>
<path d="M92.4885 101.658C92.4885 101.658 88.0832 99.7939 85.5151 105.136C85.5151 105.136 89.5765 106.675 92.9025 102.489L92.4885 101.658Z" fill="#EF6913"/>
<path d="M89.5763 96.6922C89.5763 96.6922 85.0624 94.7033 82.6572 99.9186C82.6572 99.9186 87.334 101.33 89.9722 97.4886L89.5763 96.6922Z" fill="#EF6913"/>
<path d="M87.8387 92.3454C87.8387 92.3454 83.4199 88.4356 80.1753 92.6848C80.1753 92.6848 84.6598 95.8683 88.0695 93.2437L87.8387 92.3454Z" fill="#EF6913"/>
<path d="M86.196 86.7096C86.196 86.7096 81.7455 82.707 78.5371 87.1938C78.5371 87.1938 83.4832 90.4271 86.3816 87.5762L86.196 86.7096Z" fill="#EF6913"/>
<path d="M85.2005 81.6635C85.2005 81.6635 81.6957 76.5908 77.8516 77.8986C77.8516 77.8986 81.4898 83.2745 85.2095 82.8763L85.2005 81.6635Z" fill="#EF6913"/>
<path d="M84.04 76.9077C84.04 76.9077 80.4583 70.4819 77.354 71.7399C77.354 71.7399 79.9469 76.6837 84.169 78.005L84.04 76.9077Z" fill="#EF6913"/>
<path d="M83.5738 70.7287C83.5738 70.7287 79.9537 65.7034 76.7725 66.4569C76.7725 66.4569 79.7681 71.5771 83.963 72.2084L83.5738 70.7287Z" fill="#EF6913"/>
<path d="M83.1124 65.4794C83.1124 65.4794 80.2389 59.7957 78.0781 59.8229C78.0781 59.8229 79.5737 65.5201 82.9699 66.4545L83.1124 65.4794Z" fill="#EF6913"/>
<path d="M82.39 60.3864C82.39 60.3864 79.2224 54.6394 77.0005 54.7141C77.0005 54.7141 78.702 59.6669 82.3108 60.9068L82.39 60.3864Z" fill="#EF6913"/>
<path d="M81.7095 54.2117C81.7095 54.2117 79.318 49.4466 77.4717 48.9692C77.4717 48.9692 78.7998 54.8362 81.5172 55.5082L81.7095 54.2117Z" fill="#EF6913"/>
<path d="M80.114 49.3516L74.8965 42.0298C74.8965 42.0298 76.4441 49.3878 80.8879 50.7521L80.114 49.3516Z" fill="#EF6913"/>
<path d="M76.4191 41.3328C76.4191 41.3328 70.5363 37.5973 70.3101 36.9683C70.3101 36.9683 73.446 42.3985 78.8853 43.1655L76.4191 41.3328Z" fill="#EF6913"/>
<path d="M76.0076 39.5679C76.0076 39.5679 69.1881 33.4974 67.5093 33.5675C67.5093 33.5675 72.9395 33.6082 76.1524 39.224L76.0076 39.5679Z" fill="#EF6913"/>
<path d="M81.6822 55.1531L81.4424 55.1939C79.836 45.5665 77.8222 39.9168 75.752 39.2878L75.8221 39.0615C78.01 39.7222 80.0351 45.2905 81.6822 55.1531Z" fill="#444053"/>
<path d="M84.3837 78.2179L84.0239 78.2632C83.9131 77.3581 83.8203 76.4395 83.7434 75.5209C83.0917 67.5249 82.2749 60.1918 81.3608 54.705L81.56 54.438C82.465 59.9338 83.4538 67.4841 84.1076 75.4802C84.18 76.4056 84.2751 77.3265 84.3837 78.2179Z" fill="#444053"/>
<path d="M113.786 120.96C113.721 120.933 107.238 118.333 100.362 111.797C96.3366 107.972 92.9421 103.534 90.3051 98.6466C87.0085 92.5375 84.85 84.9533 83.9404 77.541L84.3251 77.7039C86.3614 94.3386 94.4027 105.457 100.681 111.43C107.49 117.908 113.9 120.481 113.963 120.51L113.786 120.96Z" fill="#444053"/>
<g opacity="0.7">
<path opacity="0.7" d="M118.292 113.58C118.292 113.58 121.201 112.619 123.337 114.438C123.337 114.438 122.19 115.689 119.129 114.711L118.292 113.58Z" fill="#EF6913"/>
<path opacity="0.7" d="M117.963 113.585C117.963 113.585 116.438 116.246 117.796 118.703C117.796 118.703 119.251 117.827 118.904 114.63L117.963 113.585Z" fill="#EF6913"/>
<path opacity="0.7" d="M115.624 110.005C115.624 110.005 116.466 107.618 121.733 109.913C121.733 109.913 121.335 111.496 119.203 111.723C117.072 111.949 116.371 111.071 115.624 110.005Z" fill="#EF6913"/>
<path opacity="0.7" d="M115.293 109.908C115.293 109.908 112.766 110.028 113.447 115.743C113.447 115.743 115.072 115.816 115.897 113.838C116.723 111.861 116.097 110.917 115.293 109.908Z" fill="#EF6913"/>
<path opacity="0.7" d="M113.11 105.61C113.11 105.61 113.88 101.519 119.387 103.447C119.387 103.447 118.805 107.18 113.843 106.84L113.11 105.61Z" fill="#EF6913"/>
<path opacity="0.7" d="M110.619 100.077C110.619 100.077 112.617 95.7445 117.859 98.6157C117.859 98.6157 116.821 102.546 111.237 101.406L110.619 100.077Z" fill="#EF6913"/>
<path opacity="0.7" d="M109.168 94.6671C109.168 94.6671 111.657 90.5831 116.861 93.4204C116.861 93.4204 114.463 97.0406 109.318 95.5835L109.168 94.6671Z" fill="#EF6913"/>
<path opacity="0.7" d="M107.827 89.4048C107.827 89.4048 110.329 85.1556 115.327 87.9838C115.327 87.9838 112.356 91.8597 107.969 90.2827L107.827 89.4048Z" fill="#EF6913"/>
<path opacity="0.7" d="M107.336 84.617C107.336 84.617 109.825 79.266 114.495 81.8612C114.495 81.8612 111.66 86.5742 107.481 85.5334L107.336 84.617Z" fill="#EF6913"/>
<path opacity="0.7" d="M107.193 78.9555C107.193 78.9555 109.886 73.6112 114.504 76.625C114.504 76.625 111.071 81.4353 107.336 79.8311L107.193 78.9555Z" fill="#EF6913"/>
<path opacity="0.7" d="M107.546 73.8178C107.546 73.8178 110.922 68.659 114.8 69.8695C114.8 69.8695 111.296 75.336 107.56 75.0418L107.546 73.8178Z" fill="#EF6913"/>
<path opacity="0.7" d="M108.221 68.8919C108.221 68.8919 112.067 62.6222 115.117 64.0115C115.117 64.0115 112.318 68.8399 108.046 69.9825L108.221 68.8919Z" fill="#EF6913"/>
<path opacity="0.7" d="M109.41 63.1105C109.41 63.1105 112.827 57.945 116.035 58.5695C116.035 58.5695 113.246 63.8074 109.08 64.6061L109.41 63.1105Z" fill="#EF6913"/>
<path opacity="0.7" d="M110.456 57.7166C110.456 57.7166 114.341 52.6688 116.457 53.1032C116.457 53.1032 113.925 58.4203 110.413 58.7054L110.456 57.7166Z" fill="#EF6913"/>
<path opacity="0.7" d="M111.526 52.7164C111.526 52.7164 114.637 46.9354 116.855 46.9852C116.855 46.9852 115.208 51.9629 111.61 53.2345L111.526 52.7164Z" fill="#EF6913"/>
<path opacity="0.7" d="M112.488 46.0555C112.488 46.0555 115.335 41.5484 117.222 41.252C117.222 41.252 115.321 46.9605 112.554 47.361L112.488 46.0555Z" fill="#EF6913"/>
<path opacity="0.7" d="M112.981 41.6412L115.017 32.8872C115.017 32.8872 116.391 40.2791 112.8 43.2341L112.981 41.6412Z" fill="#EF6913"/>
<path opacity="0.7" d="M112.879 32.3663C112.879 32.3663 112.327 25.4224 111.877 24.9224C111.877 24.9224 115.21 30.2304 113.348 35.3982L112.879 32.3663Z" fill="#EF6913"/>
<path opacity="0.7" d="M112.965 105.532C112.965 105.532 109.119 103.933 107.721 109.605C107.721 109.605 111.162 111.164 113.603 106.824L112.965 105.532Z" fill="#EF6913"/>
<path opacity="0.7" d="M110.472 99.8736C110.472 99.8736 105.872 98.6156 104.691 104.48C104.691 104.48 108.368 106.216 111.09 101.209L110.472 99.8736Z" fill="#EF6913"/>
<path opacity="0.7" d="M109.024 95.0292C109.024 95.0292 105.374 91.9385 101.331 96.2759C101.331 96.2759 104.75 98.9526 109.171 95.9456L109.024 95.0292Z" fill="#EF6913"/>
<path opacity="0.7" d="M107.721 89.4225C107.721 89.4225 104.005 86.1802 100.157 90.4498C100.157 90.4498 104.2 93.1875 107.863 90.3027L107.721 89.4225Z" fill="#EF6913"/>
<path opacity="0.7" d="M107.356 84.7553C107.356 84.7553 104.299 79.7074 99.9395 82.7981C99.9395 82.7981 103.272 87.174 107.309 85.6807L107.356 84.7553Z" fill="#EF6913"/>
<path opacity="0.7" d="M107.465 78.8834C107.465 78.8834 104.406 73.7405 99.9985 77.0733C99.9985 77.0733 103.759 81.6325 107.375 79.7726L107.465 78.8834Z" fill="#EF6913"/>
<path opacity="0.7" d="M108.013 73.77C108.013 73.77 106.178 67.8873 102.116 67.9891C102.116 67.9891 103.992 74.2067 107.66 74.9421L108.013 73.77Z" fill="#EF6913"/>
<path opacity="0.7" d="M108.323 68.8852C108.323 68.8852 106.813 61.6856 103.476 61.9639C103.476 61.9639 104.481 67.4552 108.119 69.9713L108.323 68.8852Z" fill="#EF6913"/>
<path opacity="0.7" d="M109.717 62.8458C109.717 62.8458 107.755 56.9631 104.492 56.7368C104.492 56.7368 105.832 62.52 109.646 64.3686L109.717 62.8458Z" fill="#EF6913"/>
<path opacity="0.7" d="M110.836 57.6988C110.836 57.6988 109.784 51.4179 107.711 50.8047C107.711 50.8047 107.444 56.6875 110.411 58.5926L110.836 57.6988Z" fill="#EF6913"/>
<path opacity="0.7" d="M111.673 52.6215C111.673 52.6215 110.354 46.1912 108.216 45.6074C108.216 45.6074 108.365 50.8408 111.445 53.0989L111.673 52.6215Z" fill="#EF6913"/>
<path opacity="0.7" d="M112.85 46.526C112.85 46.526 111.983 41.2655 110.361 40.2563C110.361 40.2563 109.884 46.2545 112.277 47.7048L112.85 46.526Z" fill="#EF6913"/>
<path opacity="0.7" d="M112.773 41.4105L109.969 32.8691C109.969 32.8691 109.257 40.3561 113.094 42.9807L112.773 41.4105Z" fill="#EF6913"/>
<path opacity="0.7" d="M111.63 32.6563C111.63 32.6563 107.125 27.3392 107.105 26.6694C107.105 26.6694 108.483 32.7785 113.44 35.1361L111.63 32.6563Z" fill="#EF6913"/>
<path opacity="0.7" d="M111.762 30.8483C111.762 30.8483 107.058 23.022 105.426 22.5898C105.426 22.5898 110.603 24.2461 111.988 30.5632L111.762 30.8483Z" fill="#EF6913"/>
<path opacity="0.7" d="M112.542 47.4153L112.302 47.3813C113.633 37.7132 113.384 31.7173 111.601 30.5023L111.739 30.3032C113.628 31.5906 113.907 37.5051 112.542 47.4153Z" fill="#444053"/>
<path opacity="0.7" d="M108.261 70.2404L107.904 70.1748C108.067 69.281 108.25 68.3647 108.454 67.4732C110.209 59.6469 111.621 52.402 112.37 46.8836L112.639 46.689C111.879 52.2074 110.567 59.708 108.807 67.5434C108.607 68.4484 108.422 69.3512 108.261 70.2404Z" fill="#444053"/>
<path opacity="0.7" d="M123.615 119.793C123.561 119.75 118.144 115.336 113.526 107.053C110.816 102.204 108.892 96.9559 107.827 91.5042C106.497 84.6892 106.696 76.7973 108.028 69.4619L108.347 69.7312C105.349 86.221 109.705 99.2264 113.929 106.797C118.502 115.006 123.855 119.373 123.91 119.416L123.615 119.793Z" fill="#444053"/>
</g>
<path d="M69.5436 98.95C69.0116 99.1692 68.459 99.3344 67.8941 99.4433C66.9069 99.628 65.905 99.7227 64.9007 99.7261C64.9301 99.9908 64.9527 100.237 64.9754 100.461C65.0297 101.077 65.0613 101.5 65.0613 101.5L64.0002 101.428L55.2484 100.83L50.1304 100.072C50.3775 100.404 50.6458 100.719 50.9337 101.016C51.2318 101.331 51.5768 101.599 51.9564 101.81C51.9564 101.81 56.5743 105.55 57.373 105.584C57.4862 105.584 57.5224 105.697 57.5043 105.876C59.4478 105.876 65.4912 106.159 63.8147 109.523C63.5373 110.123 63.0482 110.599 62.4412 110.86C60.5022 111.682 57.5767 110.204 56.0698 109.297C55.9227 109.584 55.7824 109.851 55.658 110.08C55.4023 110.562 55.2236 110.881 55.2236 110.881L55.072 110.772L47.3067 105.242L45.6052 103.799C45.1054 103.776 44.6105 103.69 44.1323 103.543L43.906 103.471C43.8962 103.49 43.8879 103.511 43.8811 103.532C43.8192 103.708 43.773 103.89 43.7431 104.075C43.7431 104.102 43.7431 104.129 43.7431 104.156C43.7114 104.367 43.6902 104.579 43.6798 104.792C43.6798 104.937 43.6684 105.091 43.6684 105.245C43.6549 108.326 44.8903 113.279 44.8903 113.279C44.8903 113.279 48.0918 121.445 46.956 123.33C46.8975 123.425 46.8206 123.508 46.7297 123.574C46.3293 123.864 46.0894 124.379 45.965 124.993C45.5419 126.993 46.284 130.045 46.284 130.045C46.284 130.045 46.2161 130.158 46.1007 130.335C45.8511 130.734 45.5696 131.112 45.2591 131.466C45.2115 131.52 45.1618 131.577 45.1097 131.629C44.9696 131.776 44.8183 131.912 44.6572 132.036C44.6866 132.124 44.7183 132.215 44.75 132.312C44.7816 132.409 44.8224 132.561 44.854 132.697C45.106 133.809 45.0072 134.971 44.5712 136.025C44.2747 136.793 44.0829 137.597 44.0011 138.417C43.8539 139.916 43.8927 141.429 44.1164 142.919C44.0825 142.901 44.0531 142.883 44.0192 142.867C41.5167 141.559 39.0497 140.193 36.6182 138.77C35.9055 138.358 35.1973 137.937 34.4936 137.514C33.6278 136.992 32.7657 136.464 31.9074 135.93C30.7761 135.224 29.6448 134.5 28.5135 133.76L27.9841 133.407L27.7805 133.269C27.4931 133.077 27.2103 132.885 26.9252 132.69C25.7554 131.178 24.6867 129.591 23.7259 127.938C23.5652 127.651 23.4204 127.377 23.3005 127.126V127.113L23.2236 126.947L22.9046 126.834C22.305 126.624 21.9249 126.477 21.9249 126.477C22.2016 125.467 22.3341 124.424 22.3185 123.377C22.3004 121.341 21.7371 118.626 19.4156 116.449C15.9855 113.207 15.5126 110.005 15.4629 108.776C15.4629 108.691 15.4629 108.614 15.4629 108.55C15.4617 108.447 15.4663 108.343 15.4764 108.24L15.7389 107.989C15.0737 107.856 14.4492 107.795 14.4492 107.795C14.4492 107.795 16.7254 99.5587 20.5582 96.8096C22.4588 95.452 24.0404 93.1894 25.1581 91.2481C27.1971 87.7397 29.4868 84.3831 32.0093 81.2044L32.6994 80.3333L32.9007 80.0777L32.9437 80.0256L32.998 79.9532C32.9045 79.8114 32.8095 79.6712 32.7129 79.5324L32.6496 79.4396C32.3487 78.9871 32.0907 78.5346 32.1314 77.9938C32.1314 77.9938 32.1314 77.9825 32.1314 77.978C32.1314 77.9395 32.1314 77.9033 32.1314 77.8626C32.141 77.7724 32.1577 77.6832 32.1812 77.5956C32.1889 77.61 32.198 77.6236 32.2084 77.6363C32.5319 76.6951 33.7786 76.2788 34.6972 75.7584C36.8625 74.5411 37.7857 71.878 38.2495 69.4005C38.6093 67.4727 38.9079 65.3119 40.4013 64.0743C41.3651 63.2779 42.6639 63.0154 43.639 62.2257C44.2032 61.7272 44.6697 61.1279 45.0147 60.4587C45.241 60.074 45.4355 59.6758 45.646 59.2912C46.6098 57.549 47.8769 55.9289 49.5535 54.8859C51.2301 53.8428 53.3569 53.4378 55.1941 54.1392C55.9023 54.4085 56.5517 54.818 57.2305 55.1189C57.6496 55.2898 58.0826 55.4246 58.5247 55.5217C59.9071 55.8452 61.362 55.9289 62.6607 56.5059C64.7717 57.4426 66.1451 59.5152 67.3986 61.4836C68.048 62.5018 69.0684 63.9906 69.6476 65.4884C69.6476 65.4341 69.6476 65.3843 69.6476 65.3323C69.9269 65.9919 70.0804 66.6979 70.1002 67.4139C70.1115 67.7187 70.0787 68.0235 70.0029 68.3189C69.7947 69.0882 69.263 69.5747 68.5955 69.9322L68.4892 69.9842C68.3465 70.0576 68.1999 70.1233 68.0502 70.1811C68.0276 70.3055 68.0027 70.4322 67.9756 70.5544C67.9643 70.6064 67.9507 70.6607 67.9371 70.7128C67.9077 70.8395 67.8738 70.9639 67.8376 71.0884C67.3539 72.7055 66.4106 74.1472 65.1224 75.238C64.2303 76.0011 63.1994 76.585 62.086 76.9575C62.0068 76.9847 61.9231 77.0051 61.8439 77.0299C61.7766 77.2193 61.6805 77.3971 61.5588 77.5571C61.4707 77.6699 61.3671 77.7697 61.2511 77.8535C61.1789 77.9025 61.1033 77.9464 61.0249 77.9848C61.0057 77.9968 60.9852 78.0067 60.9638 78.0142C60.1492 78.3807 59.0338 78.0934 58.2486 77.5458C58.2079 77.5187 58.1695 77.487 58.131 77.4576C58.131 77.5865 58.1106 77.7223 58.088 77.8626C58.0654 78.0029 58.0495 78.0888 58.0247 78.2065C57.9998 78.3242 57.9907 78.3807 57.9749 78.4644C57.959 78.5481 57.9477 78.6047 57.9341 78.6703L57.907 78.7857C57.4588 80.9696 56.6037 83.0496 55.3865 84.9174C55.2099 85.1848 55.0188 85.4424 54.814 85.6889L54.2529 86.5442V86.6596C54.3592 88.628 53.7121 90.463 52.798 92.0423C52.492 92.5659 52.1558 93.0713 51.7912 93.556L51.9179 93.6306C53.1849 94.3524 55.6829 95.6353 57.2622 95.5267C57.2622 95.5267 63.2354 96.2983 63.9278 95.9114C64.0228 95.857 64.1156 95.9317 64.2016 96.0924C65.1677 95.5041 67.3896 94.2574 69.1431 94.0922C70.3694 93.9746 71.3672 94.3841 71.5527 95.9023C71.7383 97.4205 70.8242 98.4002 69.5436 98.95Z" fill="url(#paint0_linear)"/>
<path d="M36.8467 130.063C37.2291 130.716 37.4573 131.447 37.5137 132.201C37.5702 132.955 37.4535 133.712 37.1725 134.414C36.6227 135.792 36.5616 137.51 36.6181 138.77C35.9054 138.358 35.1972 137.937 34.4936 137.514C33.6277 136.992 32.7657 136.464 31.9074 135.93C30.7761 135.224 29.6448 134.5 28.5135 133.76L27.9841 133.407L27.7804 133.269C27.7626 133.237 27.7406 133.206 27.7148 133.179C27.4116 132.858 25.6445 130.324 24.5947 128.4C24.4046 128.047 24.2395 127.722 24.1082 127.423V127.407C23.882 126.905 23.7756 126.502 23.8435 126.319C23.9258 126.03 24.0653 125.761 24.2539 125.528C24.4424 125.295 24.6761 125.102 24.9409 124.961C26.2441 124.282 28.3348 124.909 30.4028 125.907C32.1821 126.806 33.8874 127.845 35.5027 129.014L35.6859 129.147L35.7041 129.161C36.3828 129.643 36.7765 129.962 36.7765 129.962C36.7765 129.962 36.8059 129.998 36.8467 130.063Z" fill="#FBBEBE"/>
<path opacity="0.05" d="M36.5028 129.762C36.886 130.415 37.1145 131.147 37.171 131.902C37.2275 132.657 37.1104 133.415 36.8287 134.118C36.2788 135.496 36.2177 137.213 36.2743 138.476C35.5623 138.061 34.8542 137.641 34.1497 137.218C33.2824 136.696 32.4203 136.168 31.5636 135.634C30.4323 134.926 29.301 134.201 28.181 133.462L27.6515 133.109L27.4479 132.971C27.4295 132.938 27.4075 132.908 27.3823 132.88C27.0791 132.561 25.312 130.027 24.2622 128.102C24.0721 127.749 23.9069 127.423 23.7757 127.124V127.111C23.5494 126.606 23.4431 126.205 23.511 126.02C23.5936 125.732 23.7333 125.463 23.9218 125.23C24.1103 124.997 24.3438 124.804 24.6083 124.662C25.9116 123.984 28.0022 124.61 30.0703 125.608C31.8496 126.507 33.5548 127.546 35.1702 128.715L35.3534 128.848L35.3715 128.862C36.0503 129.344 36.444 129.663 36.444 129.663C36.444 129.663 36.4621 129.697 36.5028 129.762Z" fill="black"/>
<path d="M44.8332 135.249C44.7674 135.636 44.6605 136.016 44.5142 136.38C44.2637 137.037 44.0913 137.72 44.0006 138.417C43.8224 139.895 43.8285 141.39 44.0187 142.867C41.5163 141.559 39.0493 140.194 36.6177 138.77C35.905 138.358 35.1968 137.937 34.4932 137.514C34.3348 136.31 34.1085 135.251 33.8528 134.991C33.518 134.638 31.6061 131.905 30.4182 129.749C30.2644 129.477 30.1309 129.215 30.0064 128.966V128.954C29.9589 128.855 29.9136 128.76 29.8707 128.665C29.5652 128.009 29.4023 127.497 29.4838 127.251C29.6425 126.714 29.9693 126.243 30.4159 125.907C32.4229 124.441 36.5951 126.425 39.799 128.396L39.8781 128.443C40.4845 128.821 41.0592 129.194 41.5751 129.543L41.876 129.746C43.2019 130.651 44.0821 131.355 44.0821 131.355C44.3007 131.692 44.4763 132.056 44.6047 132.437C44.6803 132.651 44.743 132.87 44.7925 133.093C44.9491 133.802 44.9629 134.535 44.8332 135.249Z" fill="#FBBEBE"/>
<path opacity="0.1" d="M24.6058 128.4C26.2507 128.975 28.6785 129.738 29.9998 129.758C30.1367 129.762 30.2736 129.755 30.4094 129.738C31.3393 129.611 34.206 129.815 36.8374 130.052C37.8918 130.145 38.9077 130.242 39.7471 130.328L41.8559 130.554V129.74C41.2698 129.337 40.5888 128.889 39.8602 128.437C36.6451 126.45 32.4208 124.421 30.398 125.898C27.5494 124.522 24.6578 123.862 23.8365 126.31C23.7415 126.629 24.0877 127.439 24.6058 128.4Z" fill="black"/>
<path d="M16.7022 109.437C16.7474 110.656 17.2045 113.822 20.4784 117.019C24.6552 121.092 22.8745 126.947 22.8745 126.947C22.8745 126.947 27.8523 128.902 29.9995 128.954C30.1363 128.958 30.2733 128.952 30.409 128.934C31.6964 128.755 36.8144 129.228 39.7558 129.524L41.8646 129.751V112.437L18.7996 106.835L16.7112 108.917C16.6971 109.09 16.6941 109.263 16.7022 109.437Z" fill="#5C5C8E"/>
<g opacity="0.1">
<path opacity="0.1" d="M41.4865 129.536L41.8644 129.574V129.76L39.7556 129.534C37.6446 129.321 34.4182 129.018 32.2891 128.93C33.762 128.798 38.6379 129.249 41.4865 129.536Z" fill="black"/>
<path opacity="0.1" d="M16.7114 108.928L18.7998 106.847L20.1936 107.184L18.4536 108.928C18.4425 109.102 18.4425 109.275 18.4536 109.449C18.4989 110.668 18.9559 113.831 22.2299 117.031C26.4067 121.103 24.626 126.957 24.626 126.957C24.626 126.957 28.7439 128.574 31.1038 128.907C30.877 128.906 30.6503 128.919 30.425 128.946C30.2893 128.963 30.1523 128.97 30.0155 128.966C27.8683 128.912 22.8906 126.957 22.8906 126.957C22.8906 126.957 24.6712 121.103 20.4945 117.031C17.2047 113.831 16.7476 110.668 16.7024 109.455C16.694 109.28 16.697 109.104 16.7114 108.928Z" fill="black"/>
</g>
<path d="M62.8008 97.2101C62.8008 97.2101 69.7764 92.3727 70.2855 96.7259C70.7945 101.079 62.8008 100.468 62.8008 100.468V97.2101Z" fill="#FBBEBE"/>
<path d="M50.7727 94.0015C50.7727 94.0015 54.5444 96.4903 56.6328 96.3433C56.6328 96.3433 62.3346 97.108 62.9975 96.7256C63.6604 96.3433 64.0677 102.251 64.0677 102.251L54.6983 101.588L48.6888 100.672C48.6888 100.672 45.6841 98.8389 45.6841 97.2596C45.6841 95.6803 50.7727 94.0015 50.7727 94.0015Z" fill="#F7CDDD"/>
<path d="M50.7727 94.0015C50.7727 94.0015 54.5444 96.4903 56.6328 96.3433C56.6328 96.3433 62.3346 97.108 62.9975 96.7256C63.6604 96.3433 64.0677 102.251 64.0677 102.251L54.6983 101.588L48.6888 100.672C48.6888 100.672 45.6841 98.8389 45.6841 97.2596C45.6841 95.6803 50.7727 94.0015 50.7727 94.0015Z" fill="#EF6913"/>
<path d="M56.3026 106.591C56.3026 106.591 64.7851 106.24 62.8845 110.191C60.9839 114.141 54.5581 109.345 54.5581 109.345L56.3026 106.591Z" fill="#FBBEBE"/>
<path d="M47.7725 98.176C47.7725 98.176 54.6462 93.0331 53.6801 86.7703C52.714 80.5074 47.7725 91.5579 47.7725 91.5579V98.176Z" fill="#5C5C8E"/>
<path d="M49.6777 69.783C49.679 72.0359 50.5552 74.2002 52.1213 75.8196C52.9661 76.6918 53.9832 77.3783 55.108 77.8356C55.4707 77.9873 55.8443 78.1113 56.2257 78.2067C56.6309 78.3112 57.0429 78.3868 57.4588 78.4329C57.7575 78.4623 58.0584 78.4782 58.3639 78.4782C59.3361 78.4762 60.301 78.3086 61.217 77.9827C62.7239 77.4592 64.0576 76.531 65.0719 75.2998C66.0862 74.0686 66.742 72.5819 66.9674 71.0027C67.1927 69.4235 66.979 67.8127 66.3495 66.3469C65.72 64.8811 64.6991 63.6169 63.3988 62.6929C62.0984 61.7689 60.5688 61.2207 58.9775 61.1085C57.3862 60.9962 55.7948 61.3242 54.3776 62.0565C52.9604 62.7888 51.7722 63.8972 50.9431 65.2601C50.1141 66.6229 49.6763 68.1878 49.6777 69.783Z" fill="#FBBEBE"/>
<path opacity="0.1" d="M16.7022 109.437C17.4805 109.579 18.4421 109.842 18.4421 110.245C18.4421 110.923 29.3026 114.591 29.3026 114.591C29.3026 114.591 28.8953 115.539 29.9814 117.171C31.0674 118.802 39.8983 128.169 39.8983 128.169L39.8689 128.445L39.7558 129.524L39.2173 134.685C39.2173 134.685 42.6112 133.464 43.6973 133.599C44.048 133.642 44.4303 133.418 44.781 133.092C44.652 132.476 44.412 131.888 44.0728 131.357C44.0728 131.357 43.1927 130.665 41.8646 129.748V112.437L18.7996 106.835L16.7112 108.917C16.6971 109.09 16.6941 109.263 16.7022 109.437Z" fill="black"/>
<path d="M15.7251 108.48C15.7251 108.48 18.4402 108.749 18.4402 109.43C18.4402 110.111 29.3007 113.777 29.3007 113.777C29.3007 113.777 28.8934 114.725 29.9795 116.356C31.0655 117.987 39.8965 127.354 39.8965 127.354L39.2177 133.871C39.2177 133.871 42.6116 132.649 43.6976 132.785C44.1841 132.846 44.7203 132.396 45.1638 131.88C45.5317 131.445 45.8596 130.977 46.1435 130.484C46.1435 130.484 44.9194 125.32 46.5508 124.099C48.1821 122.877 44.7859 113.917 44.7859 113.917C44.7859 113.917 43.2496 107.545 43.7022 104.812C43.731 104.63 43.7748 104.451 43.8334 104.276C43.8334 104.256 43.8447 104.235 43.8537 104.215C44.8221 101.604 55.2392 79.6996 55.2392 79.6996C55.2325 79.0783 55.1886 78.458 55.1079 77.842C55.0876 77.67 55.0604 77.4913 55.0265 77.3125C54.9739 76.9869 54.9037 76.6644 54.816 76.3464C54.7572 76.1382 54.6939 75.9391 54.6192 75.7491C54.2979 74.921 53.8047 74.2852 53.0671 74.2693C53.0671 74.2693 52.2525 73.3643 50.3519 73.1245C48.9491 72.9412 46.958 73.1245 44.2429 74.2693C37.8624 76.9845 36.3691 77.1202 36.3691 77.1202L33.1607 81.3219L32.5 82.1862C30.0853 85.3359 27.8993 88.6546 25.9588 92.1167C24.8909 94.0354 23.3795 96.2731 21.5671 97.6171C17.8995 100.334 15.7251 108.48 15.7251 108.48Z" fill="#EF6913"/>
<path opacity="0.1" d="M39.5231 92.7798C39.5231 92.7798 30.4591 95.0198 26.9453 100.672L39.5231 92.7798Z" fill="black"/>
<path opacity="0.1" d="M36.7218 102.708C36.7218 102.708 35.009 114.216 35.4842 115.082C35.9593 115.949 36.7218 102.708 36.7218 102.708Z" fill="black"/>
<path opacity="0.1" d="M37.3351 108.616C37.9958 109.48 40.6724 116.153 40.6724 116.153L39.8986 127.355L39.2199 133.871C39.2199 133.871 42.6138 132.649 43.7021 132.785C44.1863 132.846 44.7248 132.398 45.1682 131.88C44.4623 128.063 42.9554 120.078 42.6794 119.924C42.3196 119.721 40.4869 113.304 40.3896 111.521C40.2923 109.738 37.7401 105.72 37.7401 105.72C37.7401 105.72 36.6722 107.752 37.3351 108.616Z" fill="black"/>
<path opacity="0.1" d="M39.8989 97.6175C40.0641 98.1266 40.3265 101.079 40.3265 101.079C40.5121 103.684 42.4805 104.534 43.7023 104.806C43.7311 104.624 43.775 104.444 43.8336 104.27C44.6481 101.964 55.2393 79.6932 55.2393 79.6932C55.2284 78.5629 55.0864 77.4376 54.8162 76.34C52.5106 75.6612 48.8588 76.7065 48.8588 76.7065C47.8044 76.5685 44.363 83.4129 44.363 83.4129C44.363 83.4129 42.0687 88.6553 41.8176 89.3681C41.5664 90.0808 41.8176 91.2551 41.7158 91.6623C41.6139 92.0696 40.5415 92.4226 40.3899 92.9859C40.2383 93.5493 40.3378 94.6625 40.236 94.8662C40.1342 95.0698 39.7224 97.1084 39.8989 97.6175Z" fill="black"/>
<path d="M40.7132 97.21C40.8806 97.7191 41.1408 100.672 41.1408 100.672C41.2947 102.839 42.6885 103.792 43.856 104.208C44.3803 104.395 44.9291 104.505 45.485 104.534L47.1232 105.955L54.6825 111.532C54.6825 111.532 57.5017 106.328 56.737 106.294C55.9722 106.26 51.5624 102.561 51.5624 102.561C50.2048 101.842 48.8608 99.4341 48.2341 98.1987C48.2711 98.0498 48.2983 97.8987 48.3155 97.7462C48.5893 95.4406 54.2911 86.6142 54.2911 86.6142C54.2911 86.6142 56.4949 84.019 57.3546 79.211C57.3795 79.1024 57.3954 78.9847 57.4157 78.8739C57.4401 78.7241 57.4552 78.573 57.461 78.4213C57.5628 76.5728 56.2188 75.9008 54.6214 75.7402C53.7915 75.6756 52.9569 75.7014 52.1326 75.8171C51.3079 75.9201 50.4914 76.0804 49.6889 76.2968C49.0102 76.2085 47.3223 79.0481 46.2181 81.0595C45.6231 82.1501 45.1954 83.0031 45.1954 83.0031C45.1954 83.0031 42.8898 88.2478 42.6319 88.9605C42.374 89.6733 42.6319 90.8453 42.5301 91.2548C42.4283 91.6643 41.3558 92.015 41.2065 92.5784C41.0571 93.1418 41.1522 94.255 41.0503 94.4587C40.9485 94.6623 40.5413 96.7009 40.7132 97.21Z" fill="#EF6913"/>
<path opacity="0.1" d="M31.9409 85.472C33.3754 86.9472 35.7149 86.9517 37.5838 86.2028C39.4528 85.4539 41.0388 84.0873 42.7743 83.0351C43.9056 82.3564 45.0912 81.7839 46.1998 81.0757C46.3627 80.9694 46.5211 80.863 46.675 80.7544C47.9556 79.8494 49.062 78.6887 50.3856 77.8583C51.2728 77.2714 52.3047 76.941 53.3677 76.9035C53.8582 76.8986 54.3438 77.0005 54.7909 77.2022C54.869 77.2361 54.9446 77.2754 55.0172 77.3198C55.4522 77.5716 55.8549 77.8755 56.2164 78.2249C56.5897 78.562 56.9494 78.9217 57.3477 79.234C57.3725 79.1254 57.3884 79.0077 57.4088 78.8968C57.4331 78.7471 57.4482 78.596 57.454 78.4443C57.7527 78.4737 58.0536 78.4896 58.359 78.4896C59.3335 78.4845 60.2999 78.313 61.2167 77.9828C61.2167 77.9466 61.2303 77.9081 61.2371 77.8719C61.5629 76.1614 62.1421 74.349 63.5268 73.3874C64.3255 72.8285 65.6016 72.6023 66.7058 72.1769C67.0888 70.8429 67.1467 69.4366 66.8745 68.0756C66.6024 66.7146 66.0082 65.4387 65.1416 64.3545C64.275 63.2704 63.1614 62.4096 61.8938 61.8443C60.6263 61.2789 59.2417 61.0255 57.8561 61.1051C56.4705 61.1848 55.1241 61.5953 53.9297 62.3021C52.7353 63.009 51.7276 63.9917 50.991 65.168C50.2544 66.3443 49.8103 67.68 49.696 69.0632C49.5816 70.4464 49.8002 71.8368 50.3336 73.1182C48.9308 72.9349 46.9397 73.1182 44.2246 74.263C37.844 76.9782 36.3507 77.1139 36.3507 77.1139L33.1605 81.3224C33.5066 81.8518 33.8981 82.3745 33.9343 82.9922C34.0067 84.137 32.9025 84.9267 31.9409 85.472Z" fill="black"/>
<path d="M63.5383 72.5752C62.1604 73.539 61.5744 75.3491 61.2486 77.0574C61.1468 77.5914 61.0495 78.1547 60.7236 78.5778C59.9928 79.5259 58.5221 79.2566 57.5673 78.5778C56.6125 77.8991 55.8613 76.8673 54.7956 76.3854C53.3792 75.7473 51.7162 76.2134 50.3926 77.0438C49.069 77.8742 47.9603 79.0349 46.6797 79.9377C45.442 80.811 44.0619 81.4332 42.7722 82.2184C41.039 83.275 39.4552 84.6394 37.584 85.386C35.7129 86.1327 33.3756 86.1327 31.9434 84.6575C32.905 84.1235 34.0091 83.3338 33.9344 82.1912C33.8598 81.0486 32.5271 80.1911 32.6176 79.0236C32.7081 77.8561 34.086 77.39 35.0748 76.8153C37.1451 75.6116 38.0162 72.9689 38.4687 70.5252C38.8126 68.6179 39.0954 66.4842 40.5231 65.2602C41.4418 64.4705 42.6885 64.2126 43.6139 63.432C44.4917 62.6899 44.9714 61.5653 45.5325 60.5313C46.4534 58.805 47.6617 57.2031 49.2613 56.1713C50.861 55.1396 52.8951 54.7413 54.6508 55.436C55.3296 55.7007 55.936 56.1147 56.6012 56.4021C58.2529 57.1171 60.1467 57.022 61.7848 57.7732C63.8008 58.7009 65.1108 60.7508 66.31 62.6966C67.335 64.3597 69.3396 67.3033 68.7785 69.4528C68.2061 71.6452 65.0339 71.5276 63.5383 72.5752Z" fill="#7C5C5C"/>
<g opacity="0.1">
<path opacity="0.1" d="M32.6175 78.8809C32.6248 78.7914 32.6408 78.7027 32.665 78.6162C33.0293 79.1909 33.4841 79.7475 33.5271 80.4263C33.5375 80.582 33.5245 80.7383 33.4886 80.8901C33.0836 80.2385 32.5609 79.6299 32.6175 78.8809Z" fill="black"/>
<path opacity="0.1" d="M37.1765 83.6189C39.0477 82.8677 40.6315 81.5034 42.3647 80.4513C43.6544 79.6662 45.0345 79.0439 46.2722 78.1706C47.5528 77.2655 48.6615 76.1048 49.9851 75.2767C51.3087 74.4486 52.9717 73.9802 54.3881 74.6183C55.4538 75.1002 56.1982 76.1207 57.1598 76.8108C58.1214 77.5008 59.5853 77.7701 60.3161 76.8221C60.6442 76.399 60.7393 75.8378 60.8411 75.3039C61.1669 73.5933 61.7461 71.7833 63.1308 70.8194C64.6287 69.7741 67.7986 69.8917 68.3733 67.6857C68.469 67.2943 68.4943 66.889 68.4479 66.4888C68.8167 67.4685 69.0045 68.455 68.7828 69.3148C68.2058 71.5208 65.0359 71.4031 63.5381 72.4485C62.1624 73.4123 61.5742 75.2224 61.2483 76.9329C61.1465 77.4669 61.0515 78.0303 60.7257 78.4511C59.9926 79.3992 58.5219 79.1299 57.558 78.4398C56.5942 77.7497 55.852 76.7293 54.7863 76.2474C53.37 75.6093 51.7069 76.0777 50.3833 76.9058C49.0597 77.7339 47.951 78.8969 46.6704 79.7996C45.4328 80.6753 44.0526 81.2952 42.7629 82.0804C41.0297 83.1392 39.4459 84.5013 37.5747 85.248C35.7036 85.9947 33.3663 85.9924 31.9341 84.5172C32.3042 84.3167 32.6555 84.0835 32.9839 83.8203C34.2917 84.2977 35.8529 84.1484 37.1765 83.6189Z" fill="black"/>
</g>
<path d="M184.529 61.4066L175.252 52.0779C174.797 51.6128 174.255 51.2425 173.656 50.9882C173.057 50.7339 172.414 50.6007 171.764 50.5963C171.113 50.5919 170.469 50.7163 169.867 50.9625C169.264 51.2086 168.717 51.5716 168.256 52.0304L110.003 109.79L85.3724 84.967C84.4579 84.0394 83.2123 83.513 81.9097 83.5037C80.607 83.4943 79.354 84.0028 78.4263 84.9173L69.05 94.1939C68.1234 95.1193 67.5989 96.3726 67.59 97.6821C67.5811 98.9917 68.0886 100.252 69.0025 101.19L106.408 138.889C107.333 139.816 108.586 140.341 109.896 140.351C111.205 140.36 112.466 139.853 113.404 138.939L184.477 68.4003C184.942 67.9458 185.312 67.4038 185.567 66.8055C185.821 66.2072 185.954 65.5644 185.959 64.9143C185.964 64.2641 185.84 63.6194 185.595 63.0174C185.349 62.4154 184.987 61.8679 184.529 61.4066Z" fill="#3ACC6C"/>
<g opacity="0.5">
<path opacity="0.5" d="M170.55 136.211C170.55 136.211 163.631 135.794 164.441 140.643C164.4 140.889 164.437 141.142 164.547 141.365C164.658 141.588 164.836 141.771 165.057 141.887C165.057 141.887 165.057 141.528 165.765 141.65C166.014 141.692 166.267 141.705 166.519 141.686C166.858 141.664 167.18 141.531 167.437 141.308C167.437 141.308 169.381 140.505 170.139 137.324C170.139 137.324 170.698 136.631 170.675 136.453L169.507 136.953C169.507 136.953 169.908 137.794 169.593 138.494C169.593 138.494 169.555 136.982 169.331 137.018C169.286 137.018 168.725 137.31 168.725 137.31C168.725 137.31 169.403 138.776 168.892 139.844C168.892 139.844 169.089 138.034 168.51 137.417L167.688 137.896C167.688 137.896 168.489 139.412 167.946 140.648C167.946 140.648 168.086 138.751 167.514 138.014L166.77 138.593C166.77 138.593 167.523 140.086 167.064 141.114C167.064 141.114 167.005 138.905 166.611 138.738C166.611 138.738 165.96 139.313 165.86 139.55C165.86 139.55 166.376 140.634 166.057 141.206C166.057 141.206 165.86 139.733 165.699 139.729C165.699 139.729 165.05 140.702 164.982 141.369C165.014 140.752 165.206 140.154 165.541 139.634C165.167 139.706 164.822 139.885 164.548 140.15C164.548 140.15 164.647 139.471 165.702 139.399C165.702 139.399 166.238 138.661 166.38 138.616C166.38 138.616 165.333 138.528 164.697 138.81C164.697 138.81 165.256 138.159 166.571 138.455L167.306 137.856C167.306 137.856 165.928 137.665 165.342 137.874C165.342 137.874 166.021 137.299 167.505 137.717L168.306 137.24C168.306 137.24 167.129 136.987 166.428 137.077C166.428 137.077 167.168 136.679 168.541 137.111L169.114 136.853C169.114 136.853 168.252 136.683 167.998 136.659C167.745 136.634 167.734 136.561 167.734 136.561C168.279 136.471 168.839 136.534 169.351 136.742C169.351 136.742 170.571 136.288 170.55 136.211Z" fill="#EF6913"/>
</g>
<g opacity="0.5">
<path opacity="0.5" d="M158.135 102.349C158.135 102.349 154.622 108.324 159.314 109.799C159.514 109.948 159.756 110.03 160.006 110.033C160.255 110.036 160.499 109.961 160.703 109.817C160.703 109.817 160.389 109.643 160.812 109.078C160.962 108.875 161.088 108.656 161.188 108.424C161.32 108.11 161.347 107.763 161.267 107.433C161.267 107.433 161.432 105.335 158.943 103.217C158.943 103.217 158.579 102.403 158.411 102.342L158.325 103.609C158.325 103.609 159.255 103.636 159.737 104.233C159.737 104.233 158.38 103.582 158.303 103.797C158.289 103.842 158.287 104.475 158.287 104.475C158.287 104.475 159.907 104.53 160.622 105.475C160.622 105.475 159.102 104.48 158.285 104.715L158.339 105.666C158.339 105.666 160.054 105.638 160.909 106.684C160.909 106.684 159.283 105.697 158.366 105.871L158.545 106.799C158.545 106.799 160.219 106.799 160.923 107.679C160.923 107.679 158.93 106.731 158.602 107C158.602 107 158.828 107.842 158.982 108.039C158.982 108.039 160.183 108.071 160.547 108.616C160.547 108.616 159.147 108.123 159.068 108.263C159.068 108.263 159.642 109.283 160.199 109.648C159.663 109.339 159.218 108.895 158.907 108.36C158.795 108.729 158.795 109.123 158.907 109.492C158.907 109.492 158.339 109.089 158.764 108.134C158.764 108.134 158.348 107.322 158.373 107.172C158.373 107.172 157.821 108.066 157.782 108.756C157.782 108.756 157.457 107.962 158.316 106.924L158.117 105.996C158.117 105.996 157.323 107.141 157.242 107.756C157.242 107.756 157.036 106.894 158.086 105.758L158.022 104.828C158.022 104.828 157.262 105.761 157.027 106.426C157.027 106.426 157.006 105.586 158.013 104.559L158.045 103.932C158.045 103.932 157.502 104.625 157.366 104.837C157.23 105.05 157.16 105.03 157.16 105.03C157.326 104.503 157.636 104.033 158.054 103.672C158.054 103.672 158.212 102.364 158.135 102.349Z" fill="#EF6913"/>
</g>
<g opacity="0.5">
<path opacity="0.5" d="M136.159 54.6735C136.159 54.6735 132.647 60.6513 137.338 62.1242C137.538 62.2736 137.78 62.3559 138.029 62.3591C138.279 62.3624 138.523 62.2865 138.727 62.1423C138.727 62.1423 138.412 61.9681 138.838 61.4024C138.987 61.1998 139.113 60.9804 139.211 60.7486C139.344 60.4356 139.372 60.0877 139.29 59.7575C139.29 59.7575 139.458 57.6601 136.967 55.5423C136.967 55.5423 136.602 54.73 136.435 54.6689L136.349 55.9337C136.349 55.9337 137.281 55.9609 137.761 56.5582C137.761 56.5582 136.403 55.9066 136.329 56.1215C136.313 56.1668 136.313 56.8003 136.313 56.8003C136.313 56.8003 137.93 56.8546 138.645 57.8004C138.645 57.8004 137.125 56.8048 136.308 57.0402L136.365 57.9904C136.365 57.9904 138.078 57.9633 138.933 59.0086C138.933 59.0086 137.306 58.0244 136.39 58.1963L136.568 59.124C136.568 59.124 138.243 59.124 138.949 60.0064C138.949 60.0064 136.953 59.0561 136.625 59.3276C136.625 59.3276 136.851 60.1671 137.007 60.3639C137.007 60.3639 138.207 60.3956 138.571 60.9409C138.571 60.9409 137.17 60.4476 137.093 60.5879C137.093 60.5879 137.666 61.6106 138.225 61.9726C137.688 61.6645 137.242 61.2214 136.93 60.6875C136.822 61.0522 136.822 61.4405 136.93 61.8052C136.93 61.8052 136.362 61.4024 136.788 60.4363C136.788 60.4363 136.372 59.624 136.396 59.4747C136.396 59.4747 135.844 60.3684 135.806 61.0585C135.806 61.0585 135.48 60.2644 136.342 59.2258L136.141 58.2982C136.141 58.2982 135.347 59.443 135.267 60.0585C135.267 60.0585 135.059 59.1964 136.109 58.0606L136.046 57.1307C136.046 57.1307 135.285 58.0628 135.05 58.7281C135.05 58.7281 135.03 57.8886 136.037 56.8637L136.068 56.2347C136.068 56.2347 135.525 56.927 135.39 57.1397C135.254 57.3524 135.184 57.332 135.184 57.332C135.354 56.8044 135.667 56.3344 136.089 55.9745C136.089 55.9745 136.236 54.7006 136.159 54.6735Z" fill="#EF6913"/>
</g>
<g opacity="0.5">
<path opacity="0.5" d="M60.5065 9.40088C60.5065 9.40088 47.4286 18.9038 56.0853 26.4315C56.0853 26.4315 57.0651 28.2144 59.0403 27.7641C59.0403 27.7641 58.529 27.0989 59.9657 26.2844C60.475 25.9918 60.9474 25.6393 61.373 25.2346C61.9487 24.6924 62.3323 23.9776 62.4659 23.1982C62.4659 23.1982 64.7783 18.8676 61.4273 12.021C61.4273 12.021 61.407 9.94164 61.1015 9.65429L59.744 12.2834C59.744 12.2834 61.7102 13.2088 62.1831 14.9352C62.1831 14.9352 59.8729 12.2676 59.5222 12.6726C59.4521 12.7518 58.8616 14.098 58.8616 14.098C58.8616 14.098 62.2758 15.7226 62.9229 18.4106C62.9229 18.4106 60.597 14.8628 58.624 14.6049L57.857 16.6887C57.857 16.6887 61.5473 18.2295 62.4025 21.2614C62.4025 21.2614 59.8413 17.6413 57.7189 17.1548L57.2393 19.3065C57.2393 19.3065 60.8097 20.8791 61.5043 23.4064C61.5043 23.4064 58.1104 19.5192 57.1623 19.8066C57.1623 19.8066 56.8411 21.8067 57.0107 22.3792C57.0107 22.3792 59.5494 23.567 59.8209 25.0717C59.8209 25.0717 57.2845 22.714 56.9859 22.9403C56.9859 22.9403 57.2619 25.6554 58.1307 26.9609C58.1307 26.9609 56.7076 25.1305 56.5627 23.0059C56.5627 23.0059 55.5921 24.1372 55.5378 25.4065C55.5378 25.4065 54.6961 24.015 56.5039 22.3452C56.5039 22.3452 56.375 20.2184 56.5673 19.9242C56.5673 19.9242 54.549 21.3203 53.8227 22.7683C53.8227 22.7683 53.8657 20.7682 56.6736 19.3495L57.108 17.1797C57.108 17.1797 54.3454 18.8834 53.601 20.1211C53.601 20.1211 53.9608 18.0847 57.2619 16.6322L57.995 14.5845C57.995 14.5845 55.5061 15.8719 54.3748 17.0734C54.3748 17.0734 55.1147 15.2633 58.2212 14.003L58.8706 12.6907C58.8706 12.6907 57.0605 13.6636 56.5741 13.9894C56.0876 14.3152 55.9519 14.2157 55.9519 14.2157C56.7994 13.2425 57.9008 12.5242 59.1331 12.1409C59.1331 12.1409 60.6581 9.50722 60.5065 9.40088Z" fill="#EF6913"/>
</g>
<g opacity="0.5">
<path opacity="0.5" d="M47.8021 40.7583C47.8021 40.7583 30.8846 33.6447 28.6672 46.4714C28.6672 46.4714 27.511 48.4715 29.1198 50.1232C29.1198 50.1232 29.4659 49.2363 31.1018 50.1526C31.6853 50.4753 32.305 50.7275 32.9481 50.9038C33.8165 51.1434 34.7392 51.0941 35.5772 50.7635C35.5772 50.7635 41.1387 50.4626 45.82 43.1838C45.82 43.1838 47.8247 41.9439 47.9265 41.4778L44.5711 41.7041C44.5711 41.7041 44.829 44.159 43.4398 45.632C43.4398 45.632 44.6729 41.8217 44.0801 41.7154C43.9602 41.6928 42.3085 41.91 42.3085 41.91C42.3085 41.91 42.7361 46.1795 40.4984 48.3878C40.4984 48.3878 42.5754 44.0459 41.6704 41.9869L39.1974 42.4643C39.1974 42.4643 39.8762 46.9556 37.428 49.5666C37.428 49.5666 39.4395 44.9509 38.6634 42.6069L36.2922 43.4033C36.2922 43.4033 36.8646 47.795 34.817 49.9648C34.817 49.9648 36.6044 44.3966 35.7628 43.6296C35.7628 43.6296 33.6314 44.4939 33.1743 44.9871C33.1743 44.9871 33.5137 48.1548 32.2105 49.2974C32.2105 49.2974 33.0114 45.451 32.6155 45.2926C32.6155 45.2926 30.1379 47.157 29.3822 48.7657C29.3822 48.7657 30.3257 46.3085 32.3032 44.9192C32.3032 44.9192 30.6425 44.6364 29.3619 45.3333C29.3619 45.3333 30.2194 43.702 32.9028 44.4758C32.9028 44.4758 34.8917 43.0978 35.2899 43.1182C35.2899 43.1182 32.7512 41.9869 30.9163 42.1272C30.9163 42.1272 32.8825 40.9959 35.9098 42.8852L38.2697 42.0299C38.2697 42.0299 34.9912 40.3488 33.3463 40.3556C33.3463 40.3556 35.532 39.5094 38.8851 41.8625L41.3061 41.3624C41.3061 41.3624 38.591 39.6994 36.7583 39.3148C36.7583 39.3148 38.9553 38.9663 42.003 41.2493L43.6592 41.1113C43.6592 41.1113 41.6546 39.9302 41.0482 39.6429C40.4418 39.3555 40.469 39.17 40.469 39.17C41.9122 39.4205 43.2573 40.0676 44.3538 41.0389C44.3538 41.0389 47.7862 40.9687 47.8021 40.7583Z" fill="#EF6913"/>
</g>
<g opacity="0.5">
<path opacity="0.5" d="M37.6723 22.7979C37.6723 22.7979 31.6742 8.93497 23.0514 15.2929C23.0514 15.2929 21.2255 15.8223 21.2413 17.7139C21.2413 17.7139 21.9518 17.3835 22.3998 18.861C22.5668 19.3843 22.7946 19.8863 23.0785 20.3566C23.4576 20.9942 24.0343 21.4907 24.7212 21.7707C24.7212 21.7707 28.1965 24.7619 35.1292 23.1034C35.1292 23.1034 37.0275 23.5084 37.3533 23.2912L35.2332 21.5105C35.2332 21.5105 33.9888 23.117 32.319 23.1939C32.319 23.1939 35.2219 21.6327 34.9301 21.2322C34.8712 21.1508 33.7671 20.3407 33.7671 20.3407C33.7671 20.3407 31.5882 23.1192 29.0156 23.1622C29.0156 23.1622 32.724 21.7639 33.3575 20.0285L31.6153 18.8972C31.6153 18.8972 29.4274 21.9585 26.4883 22.1191C26.4883 22.1191 30.3121 20.524 31.1877 18.6868L29.3256 17.8202C29.3256 17.8202 27.1625 20.7616 24.7167 20.8725C24.7167 20.8725 28.95 18.5827 28.8844 17.6482C28.8844 17.6482 27.1263 16.9468 26.5697 16.9876C26.5697 16.9876 24.9701 19.0578 23.5424 18.999C23.5424 18.999 26.21 17.1686 26.0629 16.8495C26.0629 16.8495 23.5288 16.5464 22.1645 17.0758C22.1645 17.0758 24.1239 16.1527 26.0901 16.4559C26.0901 16.4559 25.2642 15.3404 24.1103 15.0304C24.1103 15.0304 25.5516 14.5485 26.7032 16.535C26.7032 16.535 28.6694 16.8518 28.898 17.0871C28.898 17.0871 28.0382 14.9625 26.8616 14.0055C26.8616 14.0055 28.6717 14.458 29.398 17.3021L31.2873 18.1415C31.2873 18.1415 30.2985 15.2725 29.3165 14.3426C29.3165 14.3426 31.0972 15.0847 31.7488 18.3926L33.4661 19.4764C33.4661 19.4764 32.8009 16.9423 31.9344 15.6685C31.9344 15.6685 33.4367 16.7138 33.9481 19.8068L35.0115 20.6666C35.0115 20.6666 34.4911 18.8248 34.2943 18.3089C34.0974 17.7931 34.2219 17.698 34.2219 17.698C34.9355 18.6688 35.3656 19.8187 35.464 21.0195C35.464 21.0195 37.5456 22.9178 37.6723 22.7979Z" fill="#EF6913"/>
</g>
<g opacity="0.5">
<path opacity="0.5" d="M154.576 30.0108C154.576 30.0108 153.162 23.223 148.694 25.2842C148.445 25.308 148.21 25.4099 148.023 25.5753C147.836 25.7408 147.707 25.9613 147.653 26.2051C147.653 26.2051 148.004 26.1213 148.069 26.8273C148.094 27.0778 148.148 27.3246 148.23 27.5626C148.343 27.8837 148.556 28.1598 148.838 28.35C148.838 28.35 150.124 30.0153 153.389 29.9112C153.389 29.9112 154.205 30.2687 154.373 30.2008L153.583 29.2053C153.583 29.2053 152.875 29.8117 152.119 29.6917C152.119 29.6917 153.567 29.2596 153.477 29.0514C153.456 29.0084 153.036 28.5423 153.036 28.5423C153.036 28.5423 151.8 29.5899 150.635 29.3704C150.635 29.3704 152.429 29.0854 152.877 28.3636L152.198 27.6961C152.198 27.6961 150.945 28.8681 149.61 28.6668C149.61 28.6668 151.477 28.3048 152.04 27.5604L151.284 26.9947C151.284 26.9947 150.04 28.1124 148.929 27.9382C148.929 27.9382 151.044 27.3002 151.101 26.8748C151.101 26.8748 150.377 26.3974 150.121 26.3634C150.121 26.3634 149.216 27.1463 148.576 26.9879C148.576 26.9879 149.934 26.4132 149.909 26.2548C149.909 26.2548 148.798 25.8838 148.135 25.9946C148.739 25.8637 149.367 25.8926 149.956 26.0784C149.79 25.7354 149.526 25.4489 149.198 25.2548C149.198 25.2548 149.891 25.1711 150.225 26.1598C150.225 26.1598 151.078 26.4834 151.16 26.6123C151.16 26.6123 150.97 25.5783 150.531 25.0285C150.531 25.0285 151.305 25.3973 151.366 26.7458L152.137 27.2979C152.137 27.2979 151.959 25.9177 151.603 25.4064C151.603 25.4064 152.334 25.9064 152.321 27.4427L152.999 28.0898C152.999 28.0898 152.936 26.8884 152.664 26.2367C152.664 26.2367 153.241 26.8454 153.185 28.2731L153.583 28.7595C153.583 28.7595 153.522 27.8839 153.481 27.6282C153.441 27.3726 153.504 27.3454 153.504 27.3454C153.735 27.8488 153.822 28.4065 153.755 28.9564C153.755 28.9564 154.509 30.0515 154.576 30.0108Z" fill="#EF6913"/>
</g>
<g opacity="0.5">
<path opacity="0.5" d="M130.226 155.839C130.226 155.839 128.814 149.051 124.343 151.112C124.095 151.136 123.86 151.238 123.672 151.403C123.485 151.569 123.355 151.789 123.3 152.033C123.3 152.033 123.651 151.949 123.717 152.655C123.741 152.906 123.796 153.153 123.88 153.391C123.992 153.711 124.205 153.988 124.486 154.178C124.486 154.178 125.771 155.843 129.038 155.739C129.038 155.739 129.855 156.097 130.02 156.029L129.233 155.033C129.233 155.033 128.525 155.64 127.767 155.52C127.767 155.52 129.215 155.088 129.124 154.88C129.106 154.837 128.683 154.37 128.683 154.37C128.683 154.37 127.448 155.418 126.282 155.199C126.282 155.199 128.079 154.913 128.525 154.192L127.846 153.513C127.846 153.513 126.606 154.689 125.266 154.481C125.266 154.481 127.133 154.119 127.697 153.375L126.941 152.809C126.941 152.809 125.699 153.927 124.588 153.753C124.588 153.753 126.703 153.117 126.76 152.689C126.76 152.689 126.034 152.212 125.78 152.178C125.78 152.178 124.875 152.961 124.232 152.802C124.232 152.802 125.59 152.228 125.565 152.069C125.565 152.069 124.454 151.698 123.791 151.809C124.396 151.678 125.025 151.707 125.615 151.893C125.448 151.55 125.184 151.264 124.857 151.069C124.857 151.069 125.547 150.986 125.882 151.974C125.882 151.974 126.737 152.298 126.819 152.427C126.819 152.427 126.629 151.393 126.19 150.843C126.19 150.843 126.963 151.212 127.022 152.56L127.796 153.112C127.796 153.112 127.615 151.732 127.26 151.221C127.26 151.221 127.993 151.721 127.979 153.257L128.658 153.904C128.658 153.904 128.595 152.703 128.321 152.051C128.321 152.051 128.9 152.66 128.844 154.088L129.242 154.574C129.242 154.574 129.179 153.698 129.138 153.443C129.097 153.187 129.16 153.162 129.16 153.162C129.392 153.665 129.479 154.222 129.412 154.771C129.412 154.771 130.163 155.873 130.226 155.839Z" fill="#EF6913"/>
</g>
</g>
<defs>
<linearGradient id="paint0_linear" x1="12328.3" y1="62797.8" x2="12328.3" y2="27681.4" gradientUnits="userSpaceOnUse">
<stop stop-color="#808080" stop-opacity="0.25"/>
<stop offset="0.54" stop-color="#808080" stop-opacity="0.12"/>
<stop offset="1" stop-color="#808080" stop-opacity="0.1"/>
</linearGradient>
<clipPath id="clip0">
<rect width="260" height="170.942" fill="white"/>
</clipPath>
</defs>
</svg>
